<svg xmlns="http://www.w3.org/2000/svg" viewBox="0 0 1002.99 361.28"><defs><style>.cls-1{opacity:0.2;}.cls-10,.cls-11,.cls-12,.cls-13,.cls-14,.cls-15,.cls-16,.cls-17,.cls-18,.cls-19,.cls-2,.cls-20,.cls-21,.cls-22,.cls-23,.cls-24,.cls-3,.cls-4,.cls-5,.cls-6,.cls-7,.cls-8,.cls-9{fill:none;stroke:#fff;stroke-miterlimit:10;}.cls-2{stroke-width:0.94px;}.cls-3{stroke-width:0.9px;}.cls-4{stroke-width:0.86px;}.cls-5{stroke-width:0.82px;}.cls-6{stroke-width:0.78px;}.cls-7{stroke-width:0.74px;}.cls-8{stroke-width:0.7px;}.cls-9{stroke-width:0.66px;}.cls-10{stroke-width:0.61px;}.cls-11{stroke-width:0.57px;}.cls-12{stroke-width:0.53px;}.cls-13{stroke-width:0.49px;}.cls-14{stroke-width:0.45px;}.cls-15{stroke-width:0.41px;}.cls-16{stroke-width:0.37px;}.cls-17{stroke-width:0.33px;}.cls-18{stroke-width:0.29px;}.cls-19{stroke-width:0.25px;}.cls-20{stroke-width:0.21px;}.cls-21{stroke-width:0.17px;}.cls-22{stroke-width:0.13px;}.cls-23{stroke-width:0.09px;}.cls-24{stroke-width:0.05px;}</style></defs><g id="Layer_2" data-name="Layer 2"><g id="Layer_1-2" data-name="Layer 1"><g class="cls-1"><path class="cls-2" d="M907.7.42c-35.28,17.45-71.34,35.45-98.5,63.93s-44.08,70-32.91,107.78c6.43,21.72,21.27,39.93,29.94,60.86s9.28,48.61-8.5,62.64c-16.17,12.77-39.63,8.48-59.2,2-52.71-17.48-101-46.09-152.13-67.67s-108-36.2-162.11-23.64c-76.42,17.75-131.24,85-203.27,116.09C150.15,353,63.84,344.51.27,300.75" transform="translate(0 0)"/><path class="cls-3" d="M.68,295.67c30.8,19.38,67.78,31.62,105.2,36.06,38.53,4.56,77.65.58,112.81-13,33.78-13,63.71-33.77,94.3-53.84,33.24-21.82,67.22-42.82,106.82-51.57a191.8,191.8,0,0,1,21.94-3.51c47.06-4.78,95,7.55,138.59,23.37,34.81,12.63,67.6,26.91,102.55,40.18,16,6.08,32.46,11.94,49.35,17.1,4.65,1.42,9.49,2.75,14.41,3.81,16.19,3.53,33.08,4.18,45.69-4.55a33.5,33.5,0,0,0,11.74-14.37c5.59-12.79,3.94-28.81-1.21-42-2.32-5.93-5.17-11.67-8.08-17.45-6.37-12.6-13.13-25.52-16.59-39.93-8.77-36.51,8.28-76.43,35.61-104S877,27,912,9.93" transform="translate(0 0)"/><path class="cls-4" d="M1.1,290.6c30.29,17.19,67.43,28.69,104.5,33.59,38.13,5,76.4,2.51,110.76-9.08,33-11,62.33-29.44,92.64-47.49,32.9-19.64,66.93-39,106.34-47.23A205.61,205.61,0,0,1,437.17,217c46.81-4.74,94.23,6.47,137.11,19.44,34.58,10.46,66.39,20.91,101.56,31.9,16.1,5,32.88,10.16,50.11,15,4.74,1.32,9.68,2.6,14.68,3.65,16.45,3.47,33.52,4.52,46.32-3.13A32,32,0,0,0,799,271.14c5.9-11.35,4.76-25.54.49-37.31-1.91-5.28-4.27-10.45-6.6-15.76-5.13-11.6-10.28-24.19-12.8-38.15-6.36-35.23,10.82-73.54,38.31-100.17s63.07-43.72,98-60.31" transform="translate(0 0)"/><path class="cls-5" d="M1.51,285.52c29.79,15,67.09,25.78,103.81,31.12C143,322.1,180.46,321,214,311.46c32.28-9.17,61-25.11,91-41.15,32.58-17.46,66.65-35.12,105.86-42.89q10.81-2.13,21.72-3.21c46.57-4.68,93.54,5.37,135.63,15.51,34.42,8.29,65.19,14.92,100.57,23.63,16.2,4,33.31,8.38,50.88,12.88,4.84,1.23,9.87,2.44,15,3.48,16.7,3.43,34,4.91,46.93-1.71A30.76,30.76,0,0,0,794,266.9c6.23-9.92,5.59-22.28,2.2-32.64-1.49-4.64-3.35-9.24-5.11-14.08a161.17,161.17,0,0,1-9-36.36c-4-33.89,13.35-70.67,41-96.37S886,45.11,920.7,29" transform="translate(0 0)"/><path class="cls-6" d="M1.93,280.44C31.2,293.29,68.67,303.3,105,309.1c37.32,5.9,73.89,6.27,106.66-1.28C243.24,300.55,271.28,287,301,273c32.24-15.28,66.37-31.27,105.38-38.55q10.75-2,21.6-3.07c46.32-4.63,92.91,4.25,134.16,11.59,34.3,6.11,64,8.92,99.58,15.35,16.3,2.94,33.74,6.6,51.64,10.76,4.94,1.15,10.06,2.3,15.23,3.33,17,3.37,34.4,5.26,47.56-.29a30.91,30.91,0,0,0,12.73-9.46c6.56-8.49,6.38-19,3.91-28-1.1-4-2.46-8-3.64-12.39a165.59,165.59,0,0,1-5.23-34.57c-1.58-32.49,15.88-67.8,43.7-92.56s62.93-41,97.4-56.7" transform="translate(0 0)"/><path class="cls-7" d="M2.34,275.36C31.11,286,68.75,295.3,104.76,301.55c36.91,6.35,72.65,8.19,104.62,2.62,30.8-5.36,58.19-16.46,87.63-28.46,31.92-13.11,66.09-27.43,104.91-34.21,7.13-1.25,14.3-2.21,21.48-2.93,46.08-4.58,92.34,3.08,132.69,7.67,34.23,3.9,62.77,2.92,98.58,7.06,16.4,1.91,34.17,4.83,52.41,8.66,5,1.05,10.25,2.15,15.51,3.16,17.2,3.32,34.82,5.62,48.18,1.14a32.38,32.38,0,0,0,13.06-7.83c6.88-7.07,7.19-15.76,5.61-23.33-.7-3.34-1.55-6.78-2.15-10.7-1.34-8.62-1.76-20-1.45-32.78.75-31,18.42-64.93,46.4-88.76S895.09,63.27,929.36,48" transform="translate(0 0)"/><path class="cls-8" d="M2.76,270.29C31,278.78,68.82,287.3,104.48,294c36.5,6.8,71.41,10.09,102.57,6.51,30.06-3.45,56.82-12.13,86-22.12,31.58-10.92,65.8-23.57,104.42-29.87q10.65-1.74,21.38-2.77c45.83-4.54,91.81,1.84,131.2,3.74,34.23,1.65,61.57-3.08,97.6-1.22a402.86,402.86,0,0,1,53.17,6.55c5.14,1,10.44,2,15.78,3,17.46,3.26,35.25,6,48.8,2.55a35.92,35.92,0,0,0,13.4-6.19c7.22-5.64,8-12.5,7.31-18.66a86.15,86.15,0,0,1-.67-9c-.07-7.61,1.06-18.52,2.34-31,3-29.49,21-62.06,49.1-85s62.78-38.2,96.84-53.09" transform="translate(0 0)"/><path class="cls-9" d="M3.18,265.21c27.75,6.32,65.71,14.09,101,21.26,36.1,7.24,70.18,12,100.52,10.41,29.34-1.54,55.44-7.81,84.3-15.78,31.26-8.75,65.52-19.72,104-25.53,7.06-1.07,14.15-1.93,21.26-2.63,45.59-4.48,91.34.53,129.73-.18,34.26-.64,60.36-9.08,96.6-9.5a308.12,308.12,0,0,1,53.93,4.44c5.25.87,10.64,1.85,16.07,2.83,17.71,3.22,35.68,6.33,49.42,4A43.14,43.14,0,0,0,773.71,250c7.56-4.21,8.78-9.25,9-14a55.43,55.43,0,0,1,.81-7.33c1.2-6.6,3.85-17,6.13-29.2,5.21-27.89,23.49-59.19,51.79-81.16S904.16,81.44,938,67" transform="translate(0 0)"/><path class="cls-10" d="M3.59,260.13c27.25,4.15,65.37,11.18,100.33,18.79,35.69,7.7,69,13.93,98.47,14.31,28.61.37,54.07-3.48,82.63-9.43,30.93-6.57,65.24-15.88,103.47-21.2q10.54-1.46,21.15-2.48c45.35-4.43,90.9-.85,128.26-4.11,34.33-3,59.14-15.08,95.61-17.78a252.8,252.8,0,0,1,54.69,2.34c5.34.77,10.83,1.7,16.34,2.66,18,3.17,36.11,6.69,50,5.4a58,58,0,0,0,14.06-2.92c7.91-2.79,9.57-6,10.73-9.34.49-1.42,1.16-3.08,2.29-5.64a205.13,205.13,0,0,0,9.91-27.42c7.28-26.25,26-56.3,54.49-77.35s62.64-35.44,96.29-49.47" transform="translate(0 0)"/><path class="cls-11" d="M4,255.05c26.73,2,65,8.26,99.62,16.33,35.3,8.14,67.73,15.84,96.44,18.2,27.88,2.3,52.69.91,81-3.09,30.61-4.32,65-12,103-16.85,7-.89,14-1.65,21-2.34,45.1-4.38,90.47-2.33,126.77-8,34.42-5.4,57.94-21.08,94.62-26.06a215.16,215.16,0,0,1,55.46.23c5.44.68,11,1.55,16.62,2.5,18.21,3.11,36.53,7,50.66,6.82a96.33,96.33,0,0,0,14.39-1.28c8.27-1.36,10.4-2.86,12.43-4.68a30.87,30.87,0,0,0,3.77-4c3.68-4.53,9.31-14,13.7-25.63,9.24-24.6,28.56-53.43,57.19-73.55s62.56-34.06,96-47.66" transform="translate(0 0)"/><path class="cls-12" d="M4.42,250c26.23-.2,64.68,5.34,98.93,13.87,34.89,8.59,66.51,17.77,94.39,22.1A337.65,337.65,0,0,0,277,289.19c30.28-2.14,64.67-8.18,102.52-12.51,6.94-.8,13.93-1.52,20.92-2.19,44.86-4.33,90.06-3.89,125.3-12,34.52-7.9,56.73-27.08,93.63-34.34,16.89-3.32,36.31-4.07,56.22-1.89,5.54.6,11.21,1.41,16.9,2.34,18.46,3.06,37,7.39,51.28,8.25,6.14.36,11,.31,14.72.35,8.62.08,11.31.37,14.13,0A11,11,0,0,0,777.9,235c4.89-3.51,12-12.41,17.49-23.84,11.07-23,31.09-50.56,59.89-69.75S917.77,108.68,951,95.51" transform="translate(0 0)"/><path class="cls-13" d="M4.84,244.9c25.72-2.38,64.33,2.41,98.23,11.39,34.49,9,65.28,19.71,92.34,26,26.44,6.15,49.93,9.57,77.63,9.6,29.94,0,64.38-4.33,102-8.18,6.91-.7,13.86-1.37,20.81-2,44.62-4.28,89.63-5.53,123.83-15.88,34.6-10.47,55.52-33.08,92.63-42.62,17-4.36,36.74-5.85,57-4,5.64.51,11.4,1.26,17.17,2.18,18.72,3,37.37,7.73,51.9,9.66,6.22.83,11.24,1.34,15.06,2,9,1.54,12.19,3.68,15.83,4.64a9.79,9.79,0,0,0,6.74-.58c6.09-2.51,14.57-10.89,21.26-22.05,12.81-21.35,33.63-47.69,62.59-65.95s62.42-31.3,95.46-44" transform="translate(0 0)"/><path class="cls-14" d="M5.25,239.82c25.22-4.55,64-.51,97.54,8.93,34.08,9.49,64.06,21.64,90.29,29.89,25.72,8.09,48.55,13.9,76,15.94,29.61,2.22,64.11-.47,101.56-3.83,6.87-.62,13.79-1.24,20.69-1.9,44.38-4.23,89.18-7.25,122.36-19.8C548.3,255.93,568,230,605.29,218.14c17.08-5.4,37.16-7.62,57.75-6.1,5.74.41,11.59,1.1,17.45,2,19,3,37.8,8.08,52.52,11.09a157.33,157.33,0,0,1,15.39,3.62c9.32,3,13,7,17.54,9.31a11.57,11.57,0,0,0,8.21,1.1c7.31-1.52,17.13-9.4,25.05-20.26,14.45-19.81,36.17-44.82,65.29-62.15s62.34-29.91,95.19-42.24" transform="translate(0 0)"/><path class="cls-15" d="M5.67,234.74c24.71-6.72,63.64-3.42,96.84,6.46,33.67,9.94,62.83,23.6,88.24,33.8,25,10,47.17,18.22,74.3,22.28,29.27,4.39,63.82,3.37,101.07.51,6.84-.53,13.72-1.1,20.59-1.75,44.12-4.19,88.67-9,120.87-23.73,34.67-15.83,53.11-45.08,90.65-59.19,17.18-6.45,37.6-9.4,58.52-8.21,5.83.32,11.78,1,17.72,1.85,19.22,2.9,38.23,8.42,53.15,12.5a108.16,108.16,0,0,1,15.72,5.26c9.66,4.45,13.84,10.26,19.24,14a14.58,14.58,0,0,0,9.69,2.79c8.54-.54,19.66-8,28.84-18.48,16-18.33,38.7-41.94,68-58.34S931.37,135.93,964,124" transform="translate(0 0)"/><path class="cls-16" d="M6.09,229.66c24.19-8.9,63.29-6.34,96.14,4,33.27,10.39,61.6,25.55,86.2,37.69,24.26,12,45.78,22.54,72.62,28.63,28.94,6.56,63.54,7.22,100.6,4.84,6.8-.43,13.64-1,20.47-1.6,43.88-4.13,88.13-10.85,119.4-27.66,34.62-18.6,51.89-51.07,89.66-67.46,17.28-7.49,38-11.18,59.28-10.32a170.89,170.89,0,0,1,18,1.68c19.47,2.85,38.65,8.76,53.76,13.93a88.21,88.21,0,0,1,16,6.9c10,5.9,14.66,13.53,21,18.62a18.4,18.4,0,0,0,11.18,4.48c9.76.44,22.14-6.57,32.62-16.69,17.56-16.94,41.24-39.06,70.68-54.54s62.2-27.15,94.64-38.62" transform="translate(0 0)"/><path class="cls-17" d="M6.5,224.59c23.69-11.08,63-9.27,95.45,1.53,32.86,10.83,60.36,27.5,84.15,41.58,23.53,13.94,44.4,26.87,71,35,28.6,8.73,63.25,11.06,100.11,9.18,6.77-.35,13.57-.82,20.36-1.46,43.64-4.08,87.53-12.7,117.93-31.58,34.51-21.43,50.68-57.07,88.66-75.74,17.38-8.54,38.45-13,60-12.43a155.52,155.52,0,0,1,18.27,1.51c19.73,2.8,39.08,9.11,54.39,15.36a81.3,81.3,0,0,1,16.38,8.53c10.34,7.36,15.48,16.8,22.65,23.29a22.77,22.77,0,0,0,12.66,6.16c11,1.43,24.62-5.23,36.41-14.9C824,215,848.7,194.41,878.31,179.86s62.13-25.77,94.36-36.81" transform="translate(0 0)"/><path class="cls-18" d="M6.92,219.51c23.18-13.25,62.6-12.19,94.75-.94,32.46,11.29,59.12,29.47,82.1,45.49,22.79,15.89,43,31.13,69.29,41.31,28.3,10.85,63,14.92,99.64,13.52,6.73-.25,13.5-.68,20.24-1.31,43.4-4,86.88-14.57,116.45-35.5,34.34-24.3,49.48-63.07,87.68-84,17.47-9.58,38.88-14.74,60.81-14.54a145.61,145.61,0,0,1,18.55,1.36c20,2.75,39.51,9.44,55,16.77a80.42,80.42,0,0,1,16.72,10.17c10.67,8.82,16.29,20.07,24.36,27.95a27.36,27.36,0,0,0,14.13,7.85c12.24,2.41,27.09-4,40.2-13.11,20.64-14.42,46.3-33.32,76.08-46.94s62.05-24.39,94.08-35" transform="translate(0 0)"/><path class="cls-19" d="M7.33,214.43C30,199,69.59,199.32,101.39,211c32.05,11.73,57.88,31.42,80.05,49.38s41.66,35.46,67.63,47.66c28,13,62.68,18.77,99.16,17.86,6.69-.16,13.42-.54,20.13-1.16,43.15-4,86.16-16.46,115-39.43C517.42,258.15,531.6,216.27,570,193c17.58-10.63,39.31-16.52,61.57-16.65a137.22,137.22,0,0,1,18.83,1.19A168,168,0,0,1,706,195.77a81.09,81.09,0,0,1,17.05,11.8c11,10.28,17.09,23.36,26.06,32.61a32.26,32.26,0,0,0,15.62,9.54c13.48,3.39,29.56-2.72,44-11.32C831,225.14,857.59,208,887.53,195.27s62-23,93.8-33.2" transform="translate(0 0)"/><path class="cls-20" d="M7.75,209.35c22.17-17.6,61.92-18,93.35-5.87,31.65,12.19,56.63,33.39,78,53.28s40.28,39.79,65.95,54c27.64,15.2,62.4,22.61,98.68,22.2,6.66-.08,13.35-.41,20-1,42.91-3.93,85.4-18.33,113.5-43.35C511.05,258.51,524.33,213.53,563,188c17.67-11.67,39.73-18.3,62.33-18.76a127.75,127.75,0,0,1,19.11,1,149.58,149.58,0,0,1,56.25,19.61A84.31,84.31,0,0,1,718,203.33c11.33,11.73,17.91,26.62,27.76,37.28,4.65,5.06,10.07,9.12,17.1,11.22,14.73,4.38,32.05-1.53,47.77-9.53C834.5,230.15,862,214.72,892.13,203s61.91-21.63,93.53-31.39" transform="translate(0 0)"/><path class="cls-21" d="M8.16,204.28c21.66-19.78,61.58-20.95,92.66-8.34,31.25,12.63,55.37,35.35,76,57.18s38.9,44.11,64.28,60.34c27.31,17.39,62.12,26.47,98.21,26.54,6.62,0,13.27-.27,19.9-.87,42.67-3.88,84.6-20.2,112-47.27,33.42-33,45.86-81.07,84.7-108.87,17.77-12.72,40.17-20.08,63.1-20.87a122.38,122.38,0,0,1,19.39.86,135.72,135.72,0,0,1,56.86,21A88.32,88.32,0,0,1,713,199.1C724.61,212.3,731.7,229,742.43,241c5.07,5.71,11,10.33,18.59,12.91,16,5.34,34.56-.36,51.55-7.75,25.5-11.08,53.91-24.7,84.17-35.52s61.84-20.25,93.25-29.59" transform="translate(0 0)"/><path class="cls-22" d="M8.58,199.2c21.15-21.95,61.23-23.87,92-10.8s54.11,37.31,73.92,61.07,37.53,48.44,62.62,66.69c27,19.56,61.84,30.31,97.72,30.88a186.91,186.91,0,0,0,19.79-.73c42.43-3.83,83.74-22,110.55-51.2,33-35.89,44.65-87.07,83.71-117.15,17.87-13.76,40.59-21.85,63.86-23a116.54,116.54,0,0,1,19.66.7,125.73,125.73,0,0,1,57.49,22.46,94.24,94.24,0,0,1,18,16.71c12,14.64,19.56,33.13,31.18,46.59,5.47,6.36,11.86,11.56,20.06,14.6,17.21,6.34,37.09.78,55.34-6,27.21-10.05,56.44-21.82,86.87-31.72s61.76-18.87,93-27.78" transform="translate(0 0)"/><path class="cls-23" d="M9,194.12c20.65-24.13,60.89-26.79,91.27-13.27s52.82,39.29,71.87,65,36.15,52.76,61,73c26.65,21.74,61.56,34.16,97.25,35.22A168,168,0,0,0,350,353.5c42.17-3.78,82.85-23.88,109.07-55.13,32.53-38.77,43.43-93.07,82.71-125.43a113.33,113.33,0,0,1,64.63-25.08,111.71,111.71,0,0,1,19.94.53,118.29,118.29,0,0,1,58.1,23.88,101.37,101.37,0,0,1,18.38,18.35c12.32,16.09,20.38,36.4,32.88,51.26,5.88,7,12.76,12.77,21.54,16.28,18.46,7.34,39.64,1.91,59.13-4.17,29-9,59-19,89.57-27.92s61.68-17.49,92.69-26" transform="translate(0 0)"/><path class="cls-24" d="M9.41,189C29.55,162.74,70,159.33,100,173.31s51.57,41.23,69.82,68.87,34.78,57.09,59.29,79.37A152.83,152.83,0,0,0,453,301.63c32-41.64,42.22-99.07,81.72-133.71a110.88,110.88,0,0,1,163,18.46c18.6,25.78,28.33,61.49,57.61,73.89,19.7,8.34,42.21,3,62.91-2.38L1003,209.61" transform="translate(0 0)"/></g></g></g></svg>