<svg fill="none" height="180" viewBox="0 0 400 180" width="400" xmlns="http://www.w3.org/2000/svg"><path d="m22.4751 102.389c.0996-4.6355 1.6428-9.1245 4.4147-12.8414-.957-5.761-.3509-11.6733 1.755-17.1204-4.0465 1.7122-7.6076 4.397-10.3672 7.8161-.1312.1629-.2488.3257-.3755.4931-1.2556 3.6868-1.4935 7.644-.6887 11.4546.8048 3.8107 2.6226 7.3338 5.2617 10.198" fill="#85a5cd"/><path d="m10.8006 82.8849c-.1583.787-.3709 1.7505-.4523 2.5466-.0814.796-.1945 1.6328-.2488 2.447-.23932 3.569.0487 7.1537.8549 10.6386.0317.1312.0588.2669.0859.3981.3586 1.4578.7995 2.8938 1.3208 4.3018.0407.104.0814.203.1176.307.9459 2.446 2.1595 4.779 3.6186 6.957-2.0807-3.494-3.3283-7.42-3.646-11.474s.303-8.1267 1.8141-11.902l.0678-.1809c.1086-.2488.2126-.5021.3257-.7508.1131-.2488.1945-.4207.294-.6288.0272-.0633.0633-.1266.095-.1899.4704-.9746 1.0037-1.9174 1.5967-2.8225.4026-.6152.8278-1.2168 1.2846-1.8093.1266-.1674.2443-.3302.3754-.493 2.7536-3.4106 6.3049-6.0904 10.3401-7.8026.1131-.2985.2352-.5971.3573-.9046.1222-.3076.2579-.6016.3936-.9047.2397-.5111.4839-1.0132.7463-1.5153.1538-.303.3211-.6061.4885-.9046s.3302-.588.5066-.873c-3.9271.9412-7.6359 2.6305-10.9236 4.9756-3.8882 2.7814-7.1044 6.3979-9.4128 10.5843" fill="#becde4"/><path d="m30.5038 71.7216c-.3166.1085-.6287.2216-.9363.3347s-.6197.2352-.9047.3709c-2.1052 5.4472-2.7128 11.3589-1.7595 17.1204.2036-.2714.4116-.5338.6197-.8006l.1854-.2307c.1403-.1719.2941-.3347.4524-.5021-.4082-3.3159-.2799-6.6759.3799-9.9511.4348-2.1765 1.1036-4.2997 1.9948-6.3325" fill="#becde4"/><path d="m22.475 103.47c0-.357 0-.71 0-1.063-2.6415-2.8664-4.4606-6.3926-5.2655-10.2066-.8048-3.8141-.5656-7.7746.6925-11.464-.4523.588-.9046 1.1805-1.2846 1.8092-.5866.9114-1.1182 1.8569-1.5921 2.8316.1583-.3166.3211-.6287.4885-.9409-.5108 3.6691-.14 7.407 1.0816 10.9042 1.2215 3.4972 3.2588 6.6535 5.9429 9.2065-.0271-.362-.0407-.715-.0542-1.072" fill="#91add2"/><path d="m15.5047 84.4138c-.1673.3121-.3302.6242-.4839.9408-.0317.0633-.0679.1266-.095.19-.0995.208-.1945.4161-.294.6287-.0996.2126-.2172.4975-.3257.7508l-.0679.181c-1.5653 3.9146-2.1766 8.1456-1.7834 12.3432.3933 4.1977 1.7798 8.2417 4.045 11.7967 1.0826 1.58 2.2831 3.076 3.5915 4.474.7315.727 1.5015 1.414 2.3068 2.058 2.0811 1.654 4.3928 2.995 6.8617 3.98l.0996.041c.3075.118.6196.231.9317.339.1538.064.3076.104.4524.159l.588.185.5428.158c.1809.05.3663.105.5518.15s.3031.068.4523.113l.6604.154c.0905 0 .1855.031.2759.054.6242.122 1.2575.231 1.8953.307-3.549-1.645-6.6177-4.171-8.9138-7.338-2.2962-3.168-3.7433-6.87-4.2036-10.754-.0316-.281-.0452-.552-.0723-.819-2.6799-2.552-4.7138-5.7054-5.9337-9.1991-1.2199-3.4938-1.5908-7.2277-1.0819-10.8931" fill="#7399c6"/><path d="m51.7538 53.2126c-.7237-.0769-1.4474-.1357-2.1847-.1674-7.711 2.3027-14.2844 7.4017-18.4321 14.2979l.977-.2171c.3287-.0663.6589-.1297.9906-.19 2.3589-3.5654 5.4351-6.5998 9.0325-8.9098 3.5973-2.3099 7.6366-3.8446 11.8602-4.506-.7418-.1267-1.4881-.2307-2.2616-.3076" fill="#546892"/><path d="m65.9748 93.3245c-.0995-.6966-.2216-1.3886-.3754-2.0807-.1538-.692-.3167-1.3208-.5157-1.9721-.92-1.2151-1.9579-2.3362-3.0984-3.3472.0362.3392.0679.674.095 1.0177.0271.3438.0407.683.0498 1.0268.1618 5.3692-1.6031 10.619-4.9756 14.8-3.4485 4.238-8.301 7.101-13.6782 8.069 4.4813 2.472 9.5147 3.772 14.6326 3.777.4885 0 .977 0 1.4655-.04.2624-.29.5157-.597.7645-.905 2.2914-2.822 3.9763-6.086 4.9491-9.588.9729-3.502 1.2128-7.1674.7049-10.7666" fill="#ccd7e9"/><path d="m40.1654 110.481c-.3347-.226-.6559-.452-.9725-.697-6.0059-4.525-10.2271-11.0197-11.9232-18.3457-.0769-.3076-.1402-.6242-.2035-.9408-.0634-.3166-.1222-.6333-.181-.9499-2.7686 3.7183-4.31 8.2067-4.4101 12.8414v1.063c0 .357.0271.71.0543 1.072.2488.231.5021.452.7599.692s.5201.452.7915.66c.0447.044.0915.084.1403.123 4.247 3.369 9.505 5.211 14.9266 5.228.6649 0 1.3298-.031 1.9902-.086-.3347-.217-.6649-.452-.9906-.66" fill="#becde4"/><path d="m33.1182 66.936c1.7922-.3139 3.6083-.4728 5.4278-.4749 17.5546 0 31.8299 14.4426 31.8299 32.1872.0019 5.0807-1.1912 10.0897-3.4829 14.6237 7.1329-2.151 13.2342-6.833 17.1566-13.167l.1085-.1766c.8242-3.1252 1.2423-6.3436 1.2439-9.5757 0-18.4728-13.6013-33.8517-31.4047-36.8189-4.2201.6616-8.2561 2.195-11.8508 4.5025-3.5948 2.3075-6.6696 5.3384-9.0283 8.8997" fill="#174a7c"/><path d="m10.8007 82.8849c2.3133-4.1716 5.5292-7.7739 9.4128-10.5436 3.2876-2.345 6.9965-4.0344 10.9235-4.9756 4.1436-6.9047 10.7175-12.0122 18.4322-14.3205-.6197-.0271-1.2304-.0452-1.841-.0452-18.0476 0-33.422 12.7871-36.9275 29.8849z" fill="#174a7c"/><path d="m59.2986 79.0944c-.5448-.6252-1.1312-1.2131-1.755-1.7595 1.3476 2.2272 2.2838 4.6786 2.7637 7.2371.2985.2172.5835.4524.8594.6695s.5609.4523.8232.692c-.1972-1.6955-.581-3.3642-1.1444-4.9755z" fill="#becde4"/><path d="m52.292 114.05c-3.0949-.6-6.0761-1.684-8.8338-3.212-.3709.068-.7418.127-1.1218.177-.3799.05-.7825.099-1.1805.126 5.0674 3.204 10.9397 4.904 16.9349 4.904h.0588c.2488-.236.4885-.484.7283-.733.2397-.249.4523-.484.6784-.737-.4885 0-.977.04-1.4655.04-1.9466-.001-3.8886-.19-5.7988-.565" fill="#dbe2ef"/><path d="m28.1426 88.0142c3.9719-4.4708 9.4671-7.3013 15.4132-7.9394 5.9462-.6382 11.9168.962 16.7469 4.4882-.4799-2.5586-1.4161-5.01-2.7637-7.2371-4.9768-4.5405-11.4691-7.06-18.2059-7.0653-.9912.0007-1.9817.0536-2.9673.1583-2.002.2163-3.9741.6532-5.8802 1.3027-2.232 5.1182-3.052 10.741-2.3746 16.2836" fill="#a4bada"/><path d="m61.9853 85.9245c1.1405 1.011 2.1784 2.1321 3.0984 3.3472-.9103-3.0063-2.3469-5.8273-4.2428-8.3318.5634 1.6114.9472 3.28 1.1444 4.9756" fill="#98b1d5"/><path d="m83.1043 103.298c-.0498.145-.1041.29-.1583.43.1945-.516.3889-1.036.5608-1.565.2443-.733.4524-1.484.6604-2.2346l-.0588.0996c-3.9129 6.372-10.0294 11.085-17.1882 13.244-.1538.303-.3076.606-.4523.905-.1448.298-.3167.574-.484.859 6.3868-1.66 13.0133-6.333 17.1565-11.738" fill="#546892"/><path d="m65.9477 115.036c-3.0297 5.185-7.4455 9.422-12.7509 12.235 1.0177-.108 2.0716-.344 3.0893-.556 2.6953-.606 5.3151-1.509 7.8116-2.691 5.6175-2.699 10.4925-6.727 14.2029-11.734 1.9993-2.714 2.4878-3.51 4.6454-8.562.0588-.136.1085-.285.1583-.43-4.1433 5.428-10.7698 10.078-17.1566 11.738" fill="#174a7c"/><path d="m64.9707 115.276c-.3302.072-.6559.14-.9906.203-1.2328.24-2.4789.404-3.7316.493-.3529.027-.7057.041-1.0585.055-.3528.013-.692 0-1.0403 0-4.7772 4.628-11.0974 7.327-17.7446 7.576-.3709 0-.7509.027-1.1263.027s-.8413 0-1.2574-.027c-.7645-.036-1.5289-.1-2.2616-.204-.6423-.09-1.2756-.194-1.9043-.321-.0905 0-.1855-.041-.2759-.054l-.6695-.104c-.1492-.045-.303-.068-.4523-.113s-.3709-.1-.5518-.149l-.5428-.159-.588-.185c-.1583-.054-.3121-.1-.4524-.159-.3121-.108-.6242-.221-.9317-.339l-.0995-.04c-3.3839-1.342-6.4611-3.354-9.0465-5.917 2.0027 2.115 4.243 3.991 6.6763 5.591l.2442.158c1.325.855 2.7028 1.626 4.1252 2.307l.199.095c2.8356 1.339 5.8276 2.317 8.9062 2.913 2.4169.474 4.8738.713 7.3367.715h1.1082c.7554 0 1.5062-.068 2.2616-.123.7554-.054 1.3027-.104 2.1485-.208 5.2968-2.815 9.7032-7.052 12.7238-12.235l-.977.24" fill="#becde4"/><path d="m58.0908 116.045c-5.9934.006-11.8656-1.688-16.9349-4.885-.6604.054-1.3253.081-1.9902.081-5.4208-.018-10.6782-1.858-14.9267-5.224-.0488-.039-.0956-.079-.1402-.123-.2714-.212-.5337-.452-.7915-.66-.2579-.208-.5112-.452-.7599-.692.0271.267.0407.538.0723.819.4625 3.887 1.913 7.59 4.2133 10.758 2.3002 3.167 5.3735 5.692 8.9267 7.335.7508.104 1.5153.167 2.2616.203.4207 0 .8413.027 1.2574.027.4162 0 .7554 0 1.1263-.027 6.6472-.249 12.9675-2.947 17.7446-7.576z" fill="#98b1d5"/><path d="m105.458 69.7676c-.005-.0329-.003-.0666.007-.0983s.028-.0606.051-.0844.052-.0417.084-.0524c.031-.0107.065-.0139.098-.0092h2.876c.084-.0083.168.0111.239.0552.071.0442.125.1107.155.1891l4.211 9.363h.1l4.143-9.363c.028-.0781.082-.1444.153-.1886.07-.0442.153-.0638.236-.0557h2.84c.033-.0047.067-.0015.099.0092.031.0107.06.0286.083.0524s.041.0527.051.0844.012.0654.007.0983v15.9217c.006.0327.003.0663-.007.0979s-.027.0603-.051.0838c-.023.0234-.052.0409-.084.051-.031.0101-.065.0125-.098.007h-2.745c-.033.0045-.066.0014-.097-.009-.031-.0105-.059-.028-.083-.0512-.023-.0233-.04-.0516-.051-.0827-.01-.0311-.013-.0643-.009-.0968v-9.2409h-.113l-3.085 6.9295c-.034.0926-.096.1726-.176.2292-.081.0566-.177.0871-.276.0875h-1.687c-.099-.0004-.195-.0309-.276-.0875s-.143-.1366-.177-.2292l-3.084-6.9295h-.1v9.2409c.005.033.002.0666-.009.0981s-.029.0601-.053.0835c-.023.0233-.052.0407-.084.0508s-.065.0126-.098.0073h-2.746c-.032.0045-.066.0014-.097-.009-.031-.0105-.059-.028-.082-.0512-.024-.0233-.041-.0516-.052-.0827-.01-.0311-.013-.0643-.009-.0968z" fill="#174a7c"/><path d="m128.558 69.7676c.016-.0722.057-.1363.116-.181.059-.0448.131-.0672.205-.0633h3.076c.073-.0037.145.0189.203.0637s.099.1088.114.1806l5.613 15.9217c.05.1628 0 .2397-.172.2397h-3.166c-.073.0059-.146-.0153-.204-.0596-.059-.0442-.099-.1083-.113-.1801l-.954-2.8768h-5.808l-.905 2.8768c-.016.0709-.056.1339-.114.1778s-.13.0658-.202.0619h-3.198c-.163 0-.222-.0769-.172-.2397zm3.736 10.0279-1.872-5.7263h-.055l-1.899 5.7263z" fill="#174a7c"/><path d="m139.821 69.7676c-.005-.0329-.003-.0666.007-.0983s.028-.0606.051-.0844.052-.0417.083-.0524c.032-.0107.066-.0139.099-.0092h2.913c.085-.0027.169.0188.243.062s.133.1064.173.1823l5.88 10.3265h.122v-10.3265c-.004-.0332-.001-.0669.009-.0985.011-.0317.029-.0605.053-.0841.023-.0237.052-.0415.084-.0522.031-.0107.065-.014.098-.0095h2.741c.034-.0055.068-.0029.1.0074.032.0104.061.0282.085.0521.024.0238.042.0531.052.0852s.013.0663.008.0996v15.9217c.005.0327.003.0663-.007.0979-.011.0316-.028.0603-.051.0838-.024.0234-.053.0409-.084.051-.032.0101-.065.0125-.098.007h-2.881c-.085.0032-.169-.0177-.243-.06-.074-.0424-.134-.1047-.174-.1797l-5.911-10.2994h-.141v10.2994c.006.0327.003.0663-.007.0979s-.027.0603-.051.0838c-.023.0234-.052.0409-.083.051-.032.0101-.066.0125-.098.007h-2.746c-.033.0045-.066.0014-.097-.009-.031-.0105-.059-.028-.082-.0512-.024-.0233-.041-.0515-.052-.0827-.01-.0311-.013-.0643-.009-.0968z" fill="#174a7c"/><path d="m155.815 69.7676c-.005-.0332-.001-.0669.009-.0986.011-.0316.029-.0604.053-.084.023-.0237.052-.0415.084-.0522.031-.0107.065-.014.098-.0095h2.913c.086-.0027.17.0188.244.062.073.0432.133.1064.172.1823l5.88 10.3265h.123v-10.3265c-.002-.0327.004-.0652.018-.0952.013-.0299.032-.0566.057-.0779s.054-.0367.086-.0451c.031-.0084.064-.0096.096-.0035h2.714c.034-.0044.067-.0012.099.0095s.06.0285.084.0522c.024.0236.041.0524.052.0841.011.0316.014.0654.01.0985v15.9217c.004.033.001.0666-.01.0981-.01.0316-.028.0602-.052.0835s-.053.0407-.084.0508c-.032.0101-.066.0126-.099.0073h-2.876c-.085.0032-.169-.0176-.243-.06-.073-.0424-.134-.1047-.174-.1797l-5.898-10.322h-.126v10.2994c.004.033.001.0666-.01.0981-.01.0316-.028.0601-.052.0835-.024.0233-.053.0407-.084.0508-.032.0101-.066.0126-.099.0073h-2.741c-.033.0053-.066.0028-.098-.0073s-.061-.0275-.084-.0508c-.024-.0234-.042-.0519-.053-.0835-.011-.0315-.014-.0651-.009-.0981z" fill="#174a7c"/><path d="m176.287 69.7676c.015-.0718.055-.1359.113-.1806.058-.0448.13-.0674.204-.0637h3.066c.074-.0037.146.0189.204.0637.058.0447.098.1088.113.1806l5.613 15.9217c.05.1628 0 .2397-.172.2397h-3.166c-.073.005-.146-.0164-.205-.0604-.059-.0439-.1-.1076-.116-.1793l-.95-2.8768h-5.803l-.905 2.8768c-.015.0714-.055.1349-.113.1789-.059.0441-.131.0657-.203.0608h-3.198c-.163 0-.222-.0769-.172-.2397zm3.732 10.0279-1.882-5.7264h-.068l-1.877 5.731z" fill="#174a7c"/><path d="m187.541 69.7676c-.006-.0329-.003-.0666.007-.0983s.028-.0606.051-.0844.052-.0417.083-.0524c.032-.0107.066-.0139.099-.0092h3.111c.034-.0045.067-.0012.099.0095.032.0106.06.0285.084.0521.024.0237.042.0525.052.0841.011.0317.014.0654.01.0986v15.9217c.004.033.001.0666-.009.0981-.011.0315-.029.0601-.053.0835-.024.0233-.053.0407-.084.0508-.032.0101-.066.0126-.099.0073h-3.111c-.033.0045-.066.0014-.097-.009-.031-.0105-.06-.028-.083-.0512-.023-.0233-.041-.0516-.051-.0827-.011-.0311-.014-.0643-.009-.0968z" fill="#174a7c"/><path d="m203.458 85.929c-.033.0053-.067.0028-.098-.0073-.032-.0101-.061-.0275-.085-.0508-.023-.0234-.041-.0519-.052-.0835-.011-.0315-.014-.0651-.009-.0981v-12.8595c.003-.0197.001-.0399-.005-.0589-.006-.0189-.017-.0362-.031-.0503s-.031-.0247-.05-.0308c-.019-.0062-.039-.0078-.059-.0047h-4.198c-.033.0052-.067.0026-.1-.0078-.032-.0103-.061-.0281-.085-.0518-.025-.0237-.043-.0528-.054-.0849s-.014-.0662-.009-.0998v-2.6732c-.005-.0336-.002-.0678.009-.0998.011-.0321.029-.0612.054-.0849.024-.0238.053-.0415.085-.0519.033-.0103.067-.0129.1-.0077h12.285c.034-.0045.067-.0012.099.0095s.06.0285.084.0522c.024.0236.042.0524.052.0841.011.0316.014.0653.01.0985v2.6732c.004.0331.001.0668-.01.0985-.01.0317-.028.0605-.052.0841-.024.0237-.052.0415-.084.0522s-.065.0139-.099.0095h-4.202c-.019-.0022-.039.0001-.057.0066-.019.0065-.036.0171-.05.031s-.024.0307-.031.0493c-.006.0185-.008.0383-.006.0578v12.8595c0 .1628-.077.2397-.245.2397z" fill="#174a7c"/><path d="m222.582 85.929c-.079.0059-.159-.0144-.225-.0577-.067-.0432-.118-.1071-.146-.182l-2.849-6.0023h-2.212c-.104 0-.149.0497-.149.1447v5.8576c.004.033.001.0666-.01.0981-.01.0316-.028.0601-.052.0835-.024.0233-.053.0407-.084.0508-.032.0101-.066.0126-.099.0073h-3.107c-.168 0-.244-.0769-.244-.2397v-15.9217c-.006-.0333-.003-.0675.007-.0996s.028-.0614.052-.0852c.024-.0239.053-.0417.085-.0521.032-.0103.066-.0129.1-.0074h6.626c.786-.0097 1.566.1189 2.307.38.657.2273 1.263.5824 1.782 1.0448.497.4476.889.9989 1.149 1.6148.276.6492.414 1.3483.407 2.0536.022.9836-.252 1.9512-.787 2.7772-.527.7977-1.282 1.4186-2.166 1.7822l3.293 6.4682c.015.0316.023.0665.023.1017 0 .0353-.008.0701-.023.1018-.019.0278-.045.0501-.075.0644-.03.0144-.064.0202-.097.017zm-2.506-9.2545c.596.0313 1.181-.1679 1.633-.5563.205-.1918.367-.4257.473-.6857s.155-.54.142-.8206c.011-.2763-.038-.5518-.145-.8072-.106-.2553-.266-.4846-.47-.6719-.452-.3884-1.037-.5876-1.633-.5563h-2.926c-.104 0-.149.0452-.149.1447v3.8086c0 .0995.045.1447.149.1447z" fill="#174a7c"/><path d="m233.117 69.7676c.014-.0731.055-.1383.114-.1834.059-.045.133-.0667.207-.0609h3.071c.073-.0045.145.0179.203.0629.057.045.096.1095.109.1814l5.618 15.9217c.05.1628 0 .2397-.167.2397h-3.167c-.073.0059-.145-.0153-.203-.0595-.059-.0442-.099-.1084-.113-.1802l-.955-2.8768h-5.816l-.928 2.8768c-.015.0714-.055.1349-.113.179-.058.044-.13.0656-.203.0607h-3.198c-.163 0-.222-.0769-.168-.2397zm3.736 10.028-1.882-5.7264h-.072l-1.882 5.7309z" fill="#174a7c"/><path d="m244.352 69.7676c-.004-.0332-.001-.0669.01-.0985.011-.0317.028-.0605.052-.0841.024-.0237.052-.0415.084-.0522s.066-.014.099-.0095h6.174c1.281-.0501 2.549.2635 3.659.9047 1.003.6468 1.74 1.6325 2.076 2.7772.059.2262.118.4523.181.7102.064.2578.104.5428.145.9046.041.3619.072.7373.081 1.2077s.028 1.0358.028 1.7098c0 .6739 0 1.2484-.028 1.7143-.027.4659-.045.8639-.081 1.2077-.036.3437-.09.6287-.145.8775-.054.2488-.122.4885-.181.7147-.337 1.143-1.074 2.127-2.076 2.7727-1.11.6411-2.378.9548-3.659.9046h-6.156c-.033.0053-.067.0028-.099-.0073-.031-.0101-.06-.0275-.084-.0508-.024-.0234-.042-.0519-.052-.0835-.011-.0315-.014-.0651-.009-.0981zm3.619 12.864c-.002.02 0 .0402.007.0591s.018.036.032.05.032.0245.051.0307c.019.0061.039.0079.059.005h1.873c.688.029 1.372-.1091 1.995-.4026.265-.1505.497-.3531.682-.5956s.319-.52.394-.8157c.051-.1294.092-.2625.122-.398.038-.1959.066-.3937.082-.5925.027-.2398.04-.5383.049-.9047s0-.8051 0-1.357c0-.5518 0-.9724 0-1.3298 0-.3573 0-.6468-.049-.9046-.016-.1989-.044-.3967-.082-.5926-.036-.1538-.077-.294-.122-.4523-.075-.2948-.21-.5714-.395-.8131s-.417-.4436-.681-.5936c-.623-.2918-1.308-.4284-1.995-.3981h-1.873c-.02-.0029-.04-.0011-.059.005-.019.0062-.037.0167-.051.0307s-.025.0311-.032.05-.009.0391-.007.0591z" fill="#174a7c"/><path d="m259.754 69.7676c-.005-.0336-.001-.0678.01-.0998.01-.0321.029-.0612.053-.0849.024-.0238.054-.0415.086-.0519.032-.0103.066-.0129.1-.0077h3.103c.033-.0045.067-.0012.098.0095.032.0107.061.0285.084.0522.024.0236.042.0524.053.0841.01.0316.013.0653.009.0985v15.9217c.005.033.002.0666-.009.0981-.011.0316-.029.0601-.053.0835-.023.0233-.052.0407-.084.0508s-.065.0126-.098.0073h-3.103c-.168 0-.249-.0769-.249-.2397z" fill="#174a7c"/><path d="m266.516 69.7676c-.005-.0333-.003-.0675.008-.0996.01-.0321.028-.0614.052-.0852.023-.0239.053-.0417.085-.0521.032-.0103.066-.0129.099-.0074h2.922c.086-.0027.17.0188.244.062.073.0432.133.1064.173.1823l5.88 10.3265h.122v-10.3265c-.005-.0329-.003-.0666.007-.0983s.028-.0606.051-.0844.052-.0417.083-.0524c.032-.0107.066-.0139.099-.0092h2.745c.033-.0045.067-.0012.099.0095.031.0107.06.0285.084.0522.023.0236.041.0524.052.0841.011.0316.014.0653.009.0985v15.9217c.005.033.002.0666-.009.0981-.01.0316-.028.0601-.052.0835-.024.0233-.053.0407-.085.0508-.031.0101-.065.0126-.098.0073h-2.872c-.086.004-.171-.0164-.245-.0588-.075-.0425-.136-.1052-.176-.1809l-5.921-10.2994h-.122v10.2994c.005.033.002.0666-.009.0981-.011.0316-.029.0601-.052.0835-.024.0233-.053.0407-.085.0508-.031.0101-.065.0126-.098.0073h-2.741c-.167 0-.244-.0769-.244-.2397z" fill="#174a7c"/><path d="m282.542 82.2109c-.096-.2769-.174-.5594-.235-.8458-.06-.2991-.103-.601-.131-.9047-.032-.3347-.059-.7237-.073-1.1534-.013-.4297-.022-.9589-.022-1.5695 0-.6107 0-1.1308.022-1.5651.023-.4342.041-.8187.073-1.1579.028-.3036.072-.6055.131-.9047.063-.2859.142-.5682.235-.8458.355-1.2424 1.162-2.3072 2.262-2.9853 1.164-.6822 2.495-1.0253 3.844-.9906.718-.008 1.433.0818 2.126.2669.6.1582 1.174.4051 1.701.7327.477.2865.906.6468 1.271 1.0675.344.4211.619.8945.814 1.4022.021.0291.035.0624.041.0975.006.035.005.0711-.004.1056s-.026.0665-.048.094c-.023.0274-.052.0495-.084.0648l-2.619 1.081c-.176.0543-.294 0-.339-.1176-.279-.5119-.68-.9469-1.167-1.2665-.514-.2998-1.102-.4472-1.696-.4252-.618-.0293-1.228.1456-1.737.4976-.449.3395-.776.8157-.932 1.3569-.052.163-.093.3292-.122.4976-.032.1854-.063.4071-.086.6785s-.041.5835-.05.9589 0 .8323 0 1.357v1.3569c0 .3664.027.7147.05.977.023.2624.054.4931.086.6785.029.167.07.3317.122.4931.157.5344.486 1.002.936 1.3298.523.3478 1.142.5204 1.769.493.584.0042 1.159-.1523 1.66-.4523.48-.2775.838-.7245 1.004-1.2529.066-.2298.114-.4641.145-.7011.035-.3003.051-.6024.05-.9047.003-.0199.001-.0401-.005-.0593-.007-.0191-.017-.0365-.031-.0509-.014-.0145-.031-.0255-.05-.0322-.019-.0068-.039-.0091-.059-.0068h-2.262c-.033.0046-.066.0015-.098-.0092-.031-.0107-.06-.0287-.083-.0524-.024-.0238-.041-.0527-.051-.0844-.01-.0318-.013-.0654-.007-.0983v-2.334c-.006-.0329-.003-.0665.007-.0982.01-.0318.027-.0607.051-.0845.023-.0237.052-.0417.083-.0524.032-.0107.065-.0138.098-.0091h5.718c.033-.0047.066-.0016.098.0091.031.0107.06.0287.083.0524.023.0238.041.0527.051.0845.01.0317.013.0653.007.0982v1.357c0 .7237-.031 1.4112-.095 2.0535-.051.5583-.158 1.1099-.321 1.6465-.367 1.2428-1.156 2.319-2.23 3.0441-1.139.7272-2.47 1.0974-3.822 1.063-1.347.034-2.676-.3075-3.84-.9861-1.092-.6861-1.89-1.7532-2.239-2.9944z" fill="#174a7c"/><path d="m303.643 82.1657c-.098-.2562-.176-.5193-.235-.787-.06-.299-.104-.601-.132-.9047-.036-.3302-.054-.7147-.077-1.1579-.022-.4433-.022-.9725-.022-1.6013 0-.6287 0-1.1624.022-1.6012.023-.4387.041-.8277.077-1.1579.028-.2947.071-.5877.132-.8775.061-.2701.14-.536.235-.7961.352-1.2316 1.123-2.3018 2.18-3.026 1.115-.693 2.41-1.0408 3.723-.9997 1.272-.0406 2.529.2894 3.618.9499.991.6432 1.756 1.5814 2.185 2.6823.077.1447.036.2397-.127.2895l-2.659 1.1805c-.145.0814-.258.0407-.34-.1176-.214-.5129-.544-.9695-.963-1.3343-.476-.3728-1.07-.5608-1.674-.5293-.572-.0223-1.135.1499-1.596.4886-.433.3364-.749.7999-.905 1.3253-.051.1477-.092.2989-.122.4523-.032.1673-.064.3845-.086.6378-.023.2533-.041.5834-.05.9679s0 .8685 0 1.4475v1.4519c0 .389.027.7056.05.9635.022.2578.054.4523.086.6377.03.1535.07.3047.122.4523.156.5267.472.9916.905 1.3299.461.3389 1.024.5097 1.596.484.605.0323 1.2-.1575 1.674-.5338.405-.3494.727-.7853.941-1.2755.009-.034.027-.0651.051-.0909s.054-.0455.087-.0574c.033-.012.069-.0158.104-.0113.035.0046.068.0174.097.0374l2.66 1.1851c.162.0498.203.1448.126.2895-.429 1.0995-1.194 2.0362-2.184 2.6778-1.088.6626-2.346.9928-3.619.9498-1.312.0411-2.607-.3066-3.723-.9996-1.049-.7253-1.812-1.7939-2.157-3.0215z" fill="#174a7c"/><path d="m323.735 86.1868c-1.332.0299-2.646-.3115-3.795-.986-1.102-.6779-1.909-1.745-2.262-2.9899-.097-.2762-.176-.5588-.235-.8458-.063-.2986-.108-.6007-.136-.9047-.031-.3347-.054-.7237-.072-1.1534s0-.9589 0-1.5695c0-.6107 0-1.1308 0-1.5651 0-.4342.041-.8187.072-1.1579.028-.3039.073-.606.136-.9047.059-.2869.138-.5695.235-.8458.361-1.2375 1.166-2.2977 2.262-2.9763 1.157-.6565 2.465-1.0017 3.795-1.0017s2.638.3452 3.795 1.0017c1.093.6818 1.898 1.7408 2.262 2.9763.092.2776.169.56.23.8458.063.2987.108.6008.136.9047.032.3392.054.7237.072 1.1579.018.4343 0 .9544 0 1.5651v1.5695c0 .4342-.04.8187-.072 1.1534-.027.304-.073.6061-.136.9047-.061.2859-.138.5682-.23.8458-.356 1.2431-1.163 2.309-2.262 2.9899-1.149.674-2.463 1.0154-3.795.986zm0-3.121c.599.0266 1.19-.1433 1.683-.484.445-.332.771-.7982.931-1.3298.052-.1614.093-.3261.123-.493.031-.1855.058-.4116.085-.6785.028-.2669.037-.588.046-.977s0-.8413 0-1.357c0-.5156 0-.9861 0-1.357s-.023-.7101-.046-.977c-.022-.2668-.054-.493-.085-.6739-.03-.1684-.071-.3347-.123-.4976-.16-.5304-.486-.9951-.931-1.3253-.504-.3189-1.087-.4882-1.683-.4882s-1.179.1693-1.683.4882c-.437.3316-.755.7969-.904 1.3253-.054.1628-.096.329-.127.4976-.027.1809-.059.4071-.081.6739-.023.2669-.046.5926-.05.977-.005.3845 0 .8414 0 1.357v1.357c0 .3664.022.7146.05.977.027.2623.054.493.081.6785.031.167.073.3318.127.493.149.5298.466.9966.904 1.3298.493.3407 1.084.5106 1.683.484z" fill="#174a7c"/><path d="m332.89 82.799c-.005-.0329-.003-.0666.007-.0983.01-.0318.028-.0607.051-.0844.023-.0238.052-.0417.083-.0524.032-.0107.066-.0139.099-.0092h2.922c.033-.0053.067-.0026.1.0077.032.0104.061.0281.085.0519.025.0237.043.0528.054.0848.011.0321.014.0663.009.0999v2.8903c0 .1628-.081.2397-.248.2397h-2.922c-.033.0055-.067.0031-.098-.007-.032-.0101-.061-.0276-.084-.051-.024-.0235-.041-.0522-.051-.0838s-.013-.0652-.007-.0979z" fill="#174a7c"/><path d="m356.343 85.929c-.073.0057-.145-.0156-.202-.0599-.058-.0443-.097-.1083-.11-.1798l-2.886-10.2044h-.05l-2.899 10.2044c-.016.0722-.056.1364-.116.1805-.059.0442-.132.0652-.205.0592h-2.438c-.07.0022-.138-.0209-.192-.065-.054-.044-.091-.106-.103-.1747l-4.297-15.9217c-.027-.1629.037-.2443.199-.2443h3.167c.071-.0051.141.0175.196.063s.09.1105.098.1813l2.388 10.2993h.05l2.831-10.2993c.015-.0718.055-.1358.113-.1806.059-.0448.131-.0674.204-.0637h2.126c.07-.001.138.0231.192.0679.054.0447.09.1073.102.1764l2.922 10.2993h.05l2.293-10.2993c0-.1629.113-.2443.294-.2443h3.125c.159 0 .227.0814.19.2443l-4.27 15.9217c-.005.0366-.017.0718-.035.1036-.019.0319-.044.0597-.073.082-.03.0222-.063.0385-.099.0478-.035.0093-.073.0114-.109.0063z" fill="#174a7c"/><path d="m365.258 69.7676c-.005-.0336-.001-.0678.009-.0998.011-.0321.03-.0612.054-.0849.024-.0238.053-.0415.086-.0519.032-.0103.066-.0129.1-.0077h3.103c.033-.0045.066-.0012.098.0095s.061.0285.084.0522c.024.0236.042.0524.052.0841.011.0316.014.0653.01.0985v12.864c-.002.02 0 .0402.007.0591.006.0189.017.036.032.05.014.014.032.0245.051.0307.019.0061.039.0079.059.0049h7.319c.167 0 .244.0769.244.2398v2.6732c0 .1628-.077.2397-.244.2397h-10.815c-.168 0-.249-.0769-.249-.2397z" fill="#174a7c"/><path d="m378.692 69.7676c-.005-.0333-.003-.0675.007-.0996.011-.0321.029-.0614.052-.0852.024-.0239.054-.0417.086-.0521.032-.0103.066-.0129.099-.0074h3.103c.034-.0052.068-.0026.1.0077.032.0104.062.0281.086.0519.024.0237.043.0528.053.0849.011.032.015.0662.01.0998v12.864c0 .095.045.1448.149.1448h7.319c.033-.0053.066-.0028.098.0073s.061.0275.085.0508c.023.0233.041.0519.052.0835.011.0315.014.0651.009.0981v2.6732c.005.033.002.0666-.009.0981-.011.0316-.029.0601-.052.0835-.024.0233-.053.0407-.085.0508s-.065.0126-.098.0073h-10.82c-.167 0-.244-.0769-.244-.2397z" fill="#174a7c"/><path d="m389.132 97.7166h-289.2602" stroke="#807f83" stroke-width="1.5"/><g fill="#174a7c"><path d="m106.349 109.911c-.004-.025-.002-.05.006-.073.008-.024.021-.046.039-.063.017-.018.039-.031.062-.039.024-.008.049-.01.074-.006h.688c.058-.002.116.014.165.046.049.033.086.08.106.135l3.935 8.838h.068l3.849-8.838c.017-.054.051-.1.097-.133.045-.033.1-.049.157-.048h.705c.025-.004.05-.002.074.006.023.008.045.021.063.039.017.017.03.039.038.063.008.023.01.048.006.073v11.978c.004.024.002.049-.006.073s-.021.045-.038.063c-.018.018-.04.031-.063.039-.024.007-.049.009-.074.006h-.674c-.024.002-.049 0-.072-.008-.024-.008-.045-.022-.062-.039-.018-.017-.031-.039-.039-.062s-.011-.048-.008-.072v-9.653h-.054l-3.487 7.821c-.026.06-.067.113-.118.153-.062.034-.133.05-.204.046h-.357c-.064.002-.128-.016-.181-.052-.054-.035-.095-.087-.117-.147l-3.492-7.821h-.055v9.653c.004.024.002.049-.006.073-.007.024-.02.045-.038.063s-.039.031-.063.039c-.024.007-.049.009-.074.006h-.669c-.025.003-.05.001-.074-.006-.023-.008-.045-.021-.062-.039-.018-.018-.031-.039-.039-.063s-.01-.049-.006-.073z"/><path d="m122.728 122.25c-.737.028-1.464-.175-2.081-.579-.576-.42-.994-1.022-1.185-1.709-.091-.295-.154-.598-.19-.905-.045-.443-.065-.889-.059-1.334-.005-.446.014-.891.059-1.335.036-.306.1-.609.19-.904.197-.671.61-1.258 1.176-1.669.582-.4 1.276-.604 1.981-.584.708-.019 1.405.185 1.99.584.569.409.986.996 1.185 1.669.1.293.167.596.199.904.032.326.05.792.05 1.398 0 .122-.063.181-.194.181h-5.55c-.073 0-.104.045-.104.127-.004.294.01.589.04.882.031.217.076.431.136.642.151.515.469.966.905 1.28.444.28.962.422 1.488.407.492.017.981-.092 1.42-.317.367-.197.691-.464.955-.787.011-.022.027-.041.047-.055s.043-.024.068-.027c.024-.004.049-.001.072.007s.044.021.061.039l.412.38c.018.016.033.035.043.057s.015.046.015.07-.005.048-.015.069c-.01.022-.025.042-.043.057-.328.443-.756.801-1.249 1.045-.566.278-1.191.418-1.822.407zm2.211-5.115c.073 0 .105-.037.105-.109.002-.234-.009-.468-.032-.701-.024-.188-.066-.373-.127-.552-.131-.493-.428-.926-.841-1.226-.432-.266-.929-.407-1.436-.407s-1.005.141-1.436.407c-.409.303-.704.735-.837 1.226-.061.179-.103.364-.127.552-.023.233-.034.467-.031.701 0 .072.031.109.104.109z"/><path d="m139.943 122.07c-.024.003-.049 0-.072-.008s-.044-.021-.061-.039-.03-.039-.038-.062c-.007-.023-.009-.048-.005-.072v-5.121c0-1.728-.754-2.591-2.262-2.591-.302-.01-.603.041-.885.15s-.539.273-.757.483c-.228.234-.404.513-.518.819s-.162.632-.142.958v5.302c.004.024.001.049-.006.073-.008.024-.021.045-.039.063-.017.018-.039.031-.063.039-.023.007-.049.009-.073.006h-.584c-.024.003-.049 0-.072-.008s-.044-.021-.061-.039-.03-.039-.037-.062c-.008-.023-.01-.048-.006-.072v-5.121c0-1.728-.747-2.591-2.23-2.591-.316-.013-.631.042-.924.16s-.558.296-.777.524c-.22.228-.388.499-.495.797s-.149.614-.125.929v5.302c.004.024.002.049-.005.072-.008.023-.021.044-.038.062s-.038.031-.061.039-.048.011-.072.008h-.611c-.024.003-.049 0-.072-.008s-.044-.021-.061-.039-.03-.039-.037-.062c-.008-.023-.01-.048-.006-.072v-8.291c0-.123.059-.186.176-.186h.611c.118 0 .176.063.176.186v1.031c.216-.425.551-.777.964-1.013.472-.268 1.009-.401 1.551-.385 1.321 0 2.202.538 2.642 1.615.232-.49.601-.902 1.063-1.185.527-.304 1.129-.453 1.737-.43.412-.025.825.038 1.212.186.386.147.736.375 1.027.669.569.683.854 1.559.796 2.447v5.356c.004.024.002.049-.006.073s-.021.045-.039.063c-.017.018-.039.031-.062.039-.024.007-.049.009-.074.006z"/><path d="m147.474 122.25c-.586.032-1.168-.107-1.678-.398-.387-.252-.7-.603-.905-1.017v1.054c.004.024.002.049-.005.073-.008.024-.021.045-.039.063s-.039.031-.063.039c-.024.007-.049.009-.074.006h-.606c-.024.003-.049 0-.072-.008s-.044-.021-.061-.039-.03-.039-.037-.062c-.008-.023-.01-.048-.006-.072v-11.978c-.004-.024-.002-.049.006-.072.007-.023.02-.045.037-.062.017-.018.038-.031.061-.039s.048-.011.072-.008h.606c.025-.004.05-.002.074.006s.045.021.063.039c.018.017.031.039.039.063.007.023.009.048.005.073v4.736c.204-.414.517-.764.905-1.013.508-.295 1.092-.435 1.678-.403.648-.047 1.292.134 1.82.513.528.378.907.93 1.07 1.559.11.363.187.736.231 1.113.052.442.076.888.073 1.334.003.44-.021.879-.073 1.316-.044.378-.122.752-.231 1.117-.164.628-.543 1.179-1.071 1.557-.528.377-1.171.558-1.819.51zm-.199-.945c.494.024.983-.112 1.393-.389.376-.285.652-.683.787-1.135.099-.302.161-.615.186-.932.031-.344.045-.71.045-1.099s0-.756-.045-1.108c-.024-.32-.087-.636-.186-.941-.137-.451-.412-.848-.787-1.135-.411-.275-.899-.412-1.393-.389-.48-.015-.954.118-1.357.379-.393.279-.679.682-.814 1.145-.089.276-.148.561-.176.85-.04.398-.058.799-.055 1.199-.003.397.015.794.055 1.189.028.286.087.568.176.842.133.463.42.866.814 1.144.403.262.877.394 1.357.38z"/><path d="m156.321 122.25c-.735.028-1.46-.175-2.076-.578-.578-.42-.997-1.022-1.189-1.71-.089-.296-.151-.598-.186-.905-.047-.443-.068-.889-.063-1.334-.004-.446.017-.891.063-1.335.035-.306.097-.609.186-.904.198-.672.613-1.259 1.18-1.669.592-.381 1.28-.584 1.984-.584.703 0 1.392.203 1.983.584.571.409.989.996 1.19 1.669.098.293.163.597.194.904.042.465.06.932.055 1.398 0 .122-.064.181-.195.181h-5.559c-.072 0-.109.045-.109.127-.004.294.011.589.046.882.028.217.073.432.135.642.15.516.468.967.905 1.28.444.282.963.424 1.488.407.493.016.981-.093 1.42-.317.367-.197.692-.464.955-.787.011-.022.027-.04.047-.055.02-.014.043-.024.068-.027.024-.004.049-.001.072.007.024.008.045.021.062.039l.411.38c.018.016.032.036.041.058.01.021.015.045.015.069s-.005.047-.015.069c-.009.022-.023.041-.041.058-.329.44-.757.797-1.248 1.044-.566.278-1.189.417-1.819.407zm2.23-5.115c.015.002.03.001.045-.004.014-.004.027-.012.037-.023.011-.011.019-.023.023-.038.005-.014.006-.029.004-.044.001-.234-.011-.468-.036-.701-.02-.188-.061-.373-.122-.552-.132-.493-.429-.926-.842-1.226-.431-.266-.929-.407-1.436-.407s-1.004.141-1.436.407c-.412.3-.708.733-.837 1.226-.065.178-.107.364-.126.552-.025.233-.038.467-.037.701-.002.015-.001.03.004.044.005.015.013.027.023.038.011.011.024.019.038.023.014.005.029.006.044.004z"/><path d="m162.514 122.07c-.025.003-.049 0-.072-.008s-.044-.021-.061-.039c-.018-.018-.03-.039-.038-.062-.007-.023-.009-.048-.006-.072v-8.291c0-.123.059-.186.177-.186h.606c.025-.003.05 0 .074.008.023.008.045.022.062.04.018.018.031.04.039.064.007.023.009.049.006.074v1.103c.162-.421.444-.785.809-1.049.431-.297.948-.445 1.471-.421.328-.003.654.052.963.163.277.101.532.255.751.452.095.059.108.136.036.236l-.357.506c-.059.086-.15.1-.267.036-.196-.128-.405-.235-.624-.316-.236-.082-.484-.122-.733-.118-.337-.012-.67.07-.964.235-.257.155-.474.369-.633.625-.17.287-.29.6-.357.927-.078.373-.116.754-.113 1.135v4.79c.003.025 0 .049-.008.073-.008.023-.021.044-.039.062-.017.017-.038.03-.062.038-.023.008-.048.011-.072.008z"/><path d="m176.68 122.25c-.71.022-1.41-.181-1.999-.579-.565-.411-.979-.998-1.176-1.669-.1-.311-.171-.63-.212-.954-.055-.437-.079-.876-.073-1.316-.006-.434.018-.868.073-1.298.041-.323.112-.641.212-.95.197-.671.611-1.258 1.176-1.669.588-.402 1.288-.606 1.999-.584.715-.021 1.417.183 2.009.584.569.409.986.996 1.185 1.669.1.309.171.627.212.95.055.43.079.864.073 1.298.006.44-.018.879-.073 1.316-.041.324-.112.643-.212.954-.202.672-.618 1.258-1.185 1.669-.593.397-1.295.6-2.009.579zm0-.945c.509.017 1.01-.129 1.43-.416.404-.296.698-.718.837-1.199.088-.261.147-.531.176-.805.04-.383.059-.768.054-1.153.004-.379-.014-.759-.054-1.136-.029-.274-.088-.544-.176-.805-.141-.48-.435-.901-.837-1.198-.421-.286-.921-.431-1.43-.416-.502-.013-.996.132-1.411.416-.402.297-.696.718-.837 1.198-.092.258-.155.525-.19.796-.04.377-.058.757-.054 1.136-.004.385.014.77.054 1.153.03.274.089.544.177.805.138.481.433.903.837 1.199.417.291.916.44 1.424.425z"/><path d="m183.334 122.07c-.024.003-.049 0-.072-.008s-.044-.021-.061-.039-.03-.039-.037-.062c-.008-.023-.01-.048-.006-.072v-7.495c.002-.015.001-.03-.004-.045-.004-.014-.012-.027-.023-.037-.011-.011-.023-.019-.038-.023-.014-.005-.029-.006-.044-.004h-.904c-.025.003-.049.001-.073-.008-.023-.008-.044-.021-.061-.038-.017-.018-.03-.039-.037-.063-.008-.023-.01-.048-.006-.072v-.506c0-.123.059-.186.177-.186h.904c.015.002.03.001.044-.003.015-.005.027-.013.038-.024.011-.01.019-.023.023-.037.005-.015.006-.03.004-.044v-.905c-.009-.433.032-.866.122-1.289.066-.301.208-.579.411-.81.205-.206.461-.353.742-.425.358-.092.726-.134 1.095-.127h.502c.024-.003.049 0 .072.008s.044.021.061.039c.017.017.03.039.038.062.007.023.009.048.005.072v.584c.004.024.002.049-.005.072-.008.023-.021.045-.038.062-.017.018-.038.031-.061.039s-.048.011-.072.008h-.375c-.263-.007-.525.014-.783.063-.18.022-.347.105-.474.235s-.205.299-.223.48c-.04.265-.058.532-.054.8v1.05c-.002.014-.001.03.004.044.004.014.012.027.023.038.01.01.023.018.038.023.014.004.029.006.044.003h1.809c.118 0 .176.064.176.186v.506c.004.024.002.049-.005.073-.008.023-.021.044-.038.062-.017.017-.038.031-.061.039s-.048.01-.072.007h-1.809c-.015-.002-.03-.001-.044.004-.015.004-.028.012-.038.023-.011.01-.019.023-.023.038-.005.014-.006.029-.004.044v7.495c.004.024.002.05-.006.073-.007.024-.021.046-.038.063-.018.018-.039.031-.063.039-.024.007-.049.009-.074.006z"/><path d="m192.788 109.911c-.004-.025-.002-.05.006-.073.007-.024.021-.046.038-.063.018-.018.039-.031.063-.039s.049-.01.074-.006h.687c.059-.004.118.012.167.044.049.033.086.081.105.137l3.935 8.838h.072l3.845-8.838c.017-.053.051-.099.097-.132.045-.033.1-.05.156-.049h.706c.025-.004.05-.002.073.006.024.008.046.021.063.039.018.017.031.039.039.063.008.023.01.048.006.073v11.978c.004.024.002.049-.006.073s-.021.045-.039.063c-.017.018-.039.031-.063.039-.023.007-.048.009-.073.006h-.67c-.024.003-.049.001-.073-.006-.024-.008-.045-.021-.063-.039s-.031-.039-.039-.063c-.007-.024-.009-.049-.005-.073v-9.653h-.055l-3.492 7.821c-.026.058-.065.111-.113.153-.062.034-.133.049-.203.046h-.358c-.065.003-.129-.015-.184-.05-.054-.036-.096-.088-.119-.149l-3.487-7.821h-.054v9.653c.003.024 0 .049-.008.072s-.022.045-.039.062-.039.031-.062.039-.048.01-.072.008h-.674c-.025.003-.05.001-.074-.006-.024-.008-.045-.021-.063-.039-.017-.018-.031-.039-.038-.063-.008-.024-.01-.049-.006-.073z"/><path d="m209.071 114.14c-.43-.012-.859.046-1.271.172-.312.108-.603.27-.859.48-.109.086-.195.081-.267 0l-.303-.453c-.015-.019-.025-.042-.03-.066-.006-.024-.006-.049 0-.073.005-.024.015-.046.03-.066.014-.02.033-.036.054-.048.333-.279.717-.49 1.131-.62.512-.154 1.044-.227 1.579-.217.474-.007.948.042 1.411.145.358.08.689.25.963.493.262.247.452.559.552.905.131.44.192.898.181 1.357v5.789c.003.025 0 .051-.008.074-.008.024-.022.045-.04.063-.018.017-.039.03-.063.038s-.049.01-.074.006h-.579c-.025.004-.05.002-.074-.006s-.046-.021-.064-.038c-.018-.018-.031-.039-.04-.063-.008-.023-.011-.049-.008-.074v-.904c-.196.391-.513.708-.904.904-.535.26-1.125.385-1.719.362-.745.037-1.478-.191-2.072-.642-.269-.238-.48-.535-.616-.867-.136-.333-.193-.693-.166-1.051-.029-.365.031-.731.176-1.068.144-.336.367-.632.651-.863.713-.462 1.555-.681 2.402-.625h2.158c.015.003.03.002.044-.003s.027-.013.038-.023c.01-.011.018-.024.023-.038.004-.014.006-.029.003-.044v-.905c.004-.304-.029-.608-.099-.904-.057-.24-.181-.458-.357-.629-.194-.175-.429-.296-.683-.353-.359-.094-.729-.143-1.1-.145zm-.23 7.201c.632.034 1.257-.151 1.768-.524.216-.166.389-.381.506-.628.116-.246.172-.516.164-.788v-1.325c.002-.015.001-.03-.004-.045-.004-.014-.012-.027-.023-.037-.011-.011-.023-.019-.038-.023-.014-.005-.029-.006-.044-.004h-2.026c-.642-.052-1.284.093-1.841.416-.19.154-.34.352-.437.576-.097.225-.138.469-.12.713-.014.235.027.471.12.687.094.216.237.407.419.557.451.308.992.458 1.538.425z"/><path d="m221.071 122.07c-.024.003-.049 0-.072-.008s-.044-.021-.061-.039-.03-.039-.037-.062c-.008-.023-.01-.048-.006-.072v-5.121c0-1.728-.746-2.591-2.23-2.591-.316-.013-.631.042-.924.16s-.558.296-.777.524-.388.499-.495.797c-.106.298-.149.614-.124.929v5.302c.004.024.002.049-.006.073s-.021.045-.039.063c-.017.018-.039.031-.063.039-.023.007-.049.009-.073.006h-.606c-.025.003-.049 0-.072-.008-.024-.008-.045-.021-.062-.039s-.03-.039-.037-.062c-.008-.023-.009-.048-.006-.072v-8.291c0-.123.059-.186.177-.186h.606c.025-.003.05 0 .074.008.023.008.045.022.062.04.018.018.031.04.038.064.008.023.01.049.007.074v1.031c.215-.425.55-.777.963-1.013.472-.269 1.009-.402 1.552-.385.407-.025.814.038 1.195.186.38.148.724.376 1.007.669.558.689.836 1.563.778 2.447v5.356c.003.024.001.049-.007.072-.009.023-.022.045-.039.062-.018.017-.039.031-.062.039s-.048.01-.073.008z"/><path d="m230.724 122.07c-.024.003-.049 0-.072-.008s-.044-.021-.061-.039-.03-.039-.038-.062c-.007-.023-.009-.048-.005-.072v-5.121c0-1.728-.747-2.591-2.23-2.591-.316-.013-.631.042-.924.16-.294.118-.559.296-.778.524s-.387.499-.494.797-.149.614-.125.929v5.302c.003.024 0 .049-.008.072s-.021.045-.038.062c-.018.017-.039.031-.062.039s-.048.01-.073.008h-.606c-.024.003-.049 0-.072-.008s-.044-.021-.061-.039-.03-.039-.037-.062c-.008-.023-.01-.048-.006-.072v-8.291c0-.123.059-.186.176-.186h.597c.025-.003.05 0 .074.008s.045.022.063.04c.017.018.03.04.038.064.008.023.01.049.006.074v1.031c.216-.425.551-.777.964-1.013.471-.269 1.008-.402 1.551-.385.407-.025.815.038 1.195.186.381.148.724.376 1.008.669.558.689.836 1.563.778 2.447v5.356c.003.024 0 .049-.008.072s-.021.045-.039.062c-.017.017-.038.031-.061.039-.024.008-.049.01-.073.008z"/><path d="m237.513 114.14c-.43-.012-.859.046-1.271.172-.314.108-.606.27-.864.48-.104.086-.194.081-.266 0l-.304-.453c-.014-.019-.025-.042-.03-.066s-.005-.049 0-.073.015-.046.03-.066.033-.036.055-.048c.334-.278.72-.489 1.135-.62.512-.154 1.044-.227 1.579-.217.473-.007.945.042 1.406.145.358.08.69.25.964.493.262.247.454.559.556.905.129.44.189.898.177 1.357v5.789c.003.025.001.05-.006.074-.008.024-.021.045-.039.063-.017.017-.039.031-.063.038-.023.008-.049.01-.073.006h-.584c-.024.004-.05.002-.073-.006-.024-.007-.046-.021-.063-.038-.018-.018-.031-.039-.039-.063s-.01-.049-.006-.074v-.904c-.196.391-.513.708-.904.904-.536.261-1.128.385-1.724.362-.743.036-1.475-.192-2.067-.642-.27-.238-.481-.534-.618-.867-.136-.332-.194-.692-.169-1.051-.028-.365.033-.732.178-1.068.145-.337.37-.633.654-.863.711-.461 1.552-.68 2.398-.625h2.157c.015.003.03.002.044-.003.015-.005.028-.013.038-.023.011-.011.019-.024.023-.038.005-.014.006-.029.004-.044v-.905c.006-.304-.028-.608-.1-.904-.053-.24-.176-.459-.352-.629-.194-.174-.43-.295-.683-.353-.359-.094-.729-.143-1.1-.145zm-.23 7.201c.632.032 1.256-.153 1.768-.524.215-.167.388-.382.504-.628.115-.246.171-.516.161-.788v-1.325c.002-.015.001-.03-.003-.045-.005-.014-.013-.027-.023-.037-.011-.011-.024-.019-.038-.023-.014-.005-.03-.006-.044-.004h-2.04c-.633-.041-1.263.109-1.81.43-.191.152-.342.35-.44.575-.098.224-.139.469-.121.714-.015.235.027.471.121.687.095.217.239.407.422.557.455.304.997.449 1.543.411z"/><path d="m243.927 111.11c-.024.004-.05.002-.073-.006-.024-.008-.046-.021-.063-.039-.018-.017-.031-.039-.039-.063-.008-.023-.01-.049-.006-.073v-1.018c-.003-.024 0-.049.008-.072.008-.024.021-.045.039-.062.017-.018.038-.031.062-.039.023-.008.048-.011.072-.008h.783c.024-.004.05-.002.073.006.024.008.046.021.063.039.018.017.031.039.039.063.008.023.01.048.006.073v1.018c.004.024.002.05-.006.073-.008.024-.021.046-.039.063-.017.018-.039.031-.063.039-.023.008-.049.01-.073.006zm.091 10.96c-.025.003-.05.001-.074-.006-.024-.008-.045-.021-.063-.039-.017-.018-.031-.039-.038-.063-.008-.024-.01-.049-.006-.073v-8.291c-.004-.025-.002-.051.006-.074.008-.024.021-.046.038-.064.018-.018.039-.032.063-.04s.049-.011.074-.008h.606c.117 0 .176.063.176.186v8.291c.004.024.002.049-.006.072-.007.023-.02.044-.037.062s-.038.031-.061.039-.048.011-.072.008z"/><path d="m252.313 119.491c-.051-.16-.096-.331-.135-.515-.047-.232-.079-.466-.095-.701-.027-.276-.046-.607-.064-.987-.018-.379-.027-.845-.027-1.388s0-1.009.027-1.389.037-.71.064-.99c.017-.234.048-.467.095-.697.04-.185.086-.362.135-.516.237-.829.737-1.559 1.425-2.08.712-.474 1.556-.712 2.411-.679.77-.016 1.529.181 2.194.57.651.409 1.161 1.007 1.461 1.714.049.109.031.19-.05.24l-.588.29c-.019.015-.041.025-.065.029-.024.005-.049.004-.072-.004-.023-.007-.044-.019-.061-.036-.017-.018-.03-.039-.037-.062-.251-.507-.62-.946-1.077-1.28-.503-.336-1.1-.504-1.705-.479-.643-.032-1.279.149-1.809.515-.496.394-.861.928-1.045 1.534-.036.123-.072.274-.109.452-.036.172-.063.38-.09.638s-.041.561-.05.905c-.009.343 0 .805 0 1.325v1.325c0 .362.027.67.05.905.022.235.054.452.09.638.037.185.073.312.109.452.184.605.549 1.14 1.045 1.533.53.366 1.166.548 1.809.516.605.025 1.202-.143 1.705-.48.457-.334.826-.773 1.077-1.28.007-.023.02-.044.037-.061s.038-.03.061-.037.048-.008.072-.004c.024.005.046.015.065.03l.588.29c.081.049.099.126.05.235-.299.709-.809 1.309-1.461 1.719-.665.389-1.424.586-2.194.569-.855.033-1.699-.204-2.411-.678-.688-.521-1.188-1.251-1.425-2.081z"/><path d="m265.281 122.25c-.709.021-1.407-.181-1.994-.579-.565-.413-.98-.999-1.181-1.669-.1-.311-.171-.63-.213-.954-.054-.437-.078-.876-.072-1.316-.006-.434.018-.868.072-1.298.042-.323.113-.641.213-.95.198-.672.613-1.259 1.181-1.669.586-.401 1.284-.606 1.994-.584.714-.021 1.417.183 2.009.584.57.409.989.996 1.189 1.669.098.31.169.627.213.95.052.43.076.864.072 1.298.004.44-.02.879-.072 1.316-.044.324-.115.643-.213.954-.203.672-.621 1.258-1.189 1.669-.593.398-1.295.6-2.009.579zm0-.945c.509.017 1.01-.129 1.43-.416.406-.294.7-.716.836-1.199.09-.261.151-.531.181-.805.041-.383.059-.768.055-1.153.004-.379-.014-.759-.055-1.136-.03-.274-.091-.544-.181-.805-.138-.481-.432-.902-.836-1.198-.421-.286-.921-.431-1.43-.416-.501-.012-.993.133-1.406.416-.406.295-.702.717-.842 1.198-.086.262-.145.532-.176.805-.04.377-.059.757-.054 1.136-.005.385.013.77.054 1.153.031.274.09.544.176.805.14.482.436.904.842 1.199.412.285.905.43 1.406.416z"/><path d="m271.655 122.07c-.025.003-.05.001-.074-.006-.024-.008-.045-.021-.063-.039s-.031-.039-.039-.063c-.007-.024-.009-.049-.005-.073v-8.291c-.004-.025-.002-.051.006-.074.007-.024.021-.046.038-.064.018-.018.039-.032.063-.04.023-.008.049-.011.074-.008h.606c.117 0 .176.063.176.186v1.103c.174-.452.486-.838.892-1.102.407-.264.886-.392 1.37-.368.328-.002.654.053.963.163.277.101.532.255.751.452.095.059.104.136.036.236l-.357.506c-.059.086-.149.1-.267.036-.197-.129-.408-.236-.629-.316-.234-.081-.48-.121-.728-.118-.337-.012-.67.07-.963.235-.259.154-.476.368-.634.624-.171.287-.292.6-.357.928-.08.373-.119.754-.118 1.135v4.79c.004.024.002.049-.005.072-.008.024-.021.045-.038.063-.017.017-.038.03-.061.038-.023.009-.048.011-.072.008z"/><path d="m278.729 125.335c-.025.004-.05.002-.074-.006-.024-.007-.045-.021-.063-.038-.017-.018-.031-.039-.038-.063-.008-.024-.01-.049-.006-.074v-11.556c-.004-.025-.002-.051.006-.074.008-.024.021-.046.038-.064.018-.018.039-.032.063-.04s.049-.011.074-.008h.606c.117 0 .176.063.176.186v1.049c.204-.414.517-.764.905-1.013.508-.294 1.091-.434 1.678-.403.648-.047 1.292.134 1.82.513.528.378.907.93 1.07 1.559.111.363.19.735.236 1.113.047.443.07.888.067 1.334.003.44-.02.879-.067 1.316-.046.379-.125.752-.236 1.117-.164.628-.543 1.179-1.071 1.557-.528.377-1.172.558-1.819.51-.586.031-1.168-.107-1.678-.398-.387-.252-.7-.603-.905-1.017v4.319c.004.025.002.049-.006.073-.007.023-.02.044-.037.062-.017.017-.038.031-.061.039s-.048.01-.072.007zm3.193-4.03c.494.024.983-.113 1.393-.389.373-.288.647-.685.783-1.135.101-.302.163-.615.185-.932.032-.344.045-.71.045-1.099s.001-.756-.045-1.108c-.022-.32-.084-.637-.185-.941-.136-.451-.41-.848-.783-1.135-.411-.275-.899-.411-1.393-.389-.48-.013-.953.119-1.357.379-.393.278-.678.682-.809 1.145-.093.275-.154.561-.181.85-.04.399-.058.799-.055 1.199-.003.397.015.794.055 1.189.027.287.088.569.181.842.13.463.416.867.809 1.144.396.255.859.387 1.33.38z"/><path d="m290.905 122.25c-.71.022-1.41-.181-1.999-.579-.566-.411-.979-.998-1.176-1.669-.099-.311-.172-.63-.217-.954-.05-.437-.073-.877-.068-1.316-.005-.434.018-.868.068-1.298.045-.323.117-.641.217-.95.197-.671.61-1.258 1.176-1.669.588-.402 1.288-.606 1.999-.584.714-.02 1.417.184 2.009.584.569.409.985.996 1.185 1.669.1.309.171.627.212.95.054.43.079.864.073 1.298.006.44-.018.879-.073 1.316-.041.324-.113.643-.212.954-.202.672-.618 1.258-1.185 1.669-.594.397-1.295.599-2.009.579zm0-.945c.507.017 1.007-.129 1.425-.416.406-.295.702-.717.841-1.199.086-.261.145-.531.177-.805.04-.383.058-.768.054-1.153.004-.379-.014-.759-.054-1.136-.032-.273-.091-.543-.177-.805-.139-.482-.435-.903-.841-1.198-.423-.272-.915-.417-1.418-.417s-.995.145-1.418.417c-.404.296-.698.717-.837 1.198-.089.261-.15.531-.181.805-.036.378-.052.757-.049 1.136-.004.385.013.77.049 1.153.031.274.092.544.181.805.139.481.433.903.837 1.199.414.285.909.431 1.411.416z"/><path d="m297.274 122.07c-.024.003-.049 0-.072-.008s-.044-.021-.061-.039-.03-.039-.038-.062c-.007-.023-.009-.048-.005-.072v-8.291c0-.123.058-.186.176-.186h.606c.025-.003.05 0 .074.008s.045.022.063.04c.017.018.03.04.038.064.008.023.01.049.006.074v1.103c.163-.421.444-.785.81-1.049.432-.298.95-.446 1.474-.421.329-.002.655.053.964.163.275.102.528.256.746.452.095.059.109.136.036.236l-.357.506c-.059.086-.149.1-.267.036-.195-.128-.405-.234-.624-.316-.236-.082-.484-.122-.733-.118-.337-.012-.67.07-.963.235-.258.155-.475.369-.634.625-.169.287-.29.6-.357.927-.078.373-.116.754-.113 1.135v4.79c.003.025 0 .049-.008.073-.008.023-.021.044-.039.062-.017.017-.038.03-.061.038-.024.008-.048.011-.073.008z"/><path d="m306.99 114.14c-.43-.012-.86.046-1.271.172-.314.108-.607.27-.864.48-.104.086-.195.081-.267 0l-.303-.453c-.015-.019-.025-.042-.03-.066-.006-.024-.006-.049-.001-.073.006-.024.016-.046.03-.066.015-.02.034-.036.055-.048.334-.279.72-.49 1.136-.62.511-.154 1.044-.227 1.578-.217.473-.007.945.042 1.407.145.358.08.689.25.963.493.263.247.455.559.557.905.129.44.188.898.176 1.357v5.789c.004.025.002.05-.006.074s-.021.045-.038.063c-.018.017-.04.031-.063.038-.024.008-.049.01-.074.006h-.583c-.025.004-.05.002-.074-.006-.024-.007-.045-.021-.063-.038-.017-.018-.031-.039-.038-.063-.008-.024-.01-.049-.006-.074v-.904c-.198.39-.515.707-.905.904-.536.261-1.128.385-1.723.362-.743.036-1.475-.192-2.067-.642-.27-.238-.482-.534-.618-.867-.137-.332-.195-.692-.169-1.051-.029-.365.031-.731.176-1.068.144-.336.367-.632.651-.863.713-.461 1.555-.679 2.402-.625h2.158c.015.003.03.002.044-.003s.027-.013.038-.023c.01-.011.018-.024.023-.038.004-.014.006-.029.003-.044v-.905c.006-.304-.027-.608-.099-.904-.054-.24-.176-.459-.353-.629-.194-.174-.429-.295-.683-.353-.359-.094-.728-.143-1.099-.145zm-.217 7.201c.632.032 1.256-.153 1.768-.524.215-.167.388-.382.504-.628.115-.246.171-.516.161-.788v-1.325c.003-.015.001-.03-.003-.045-.005-.014-.013-.027-.023-.037-.011-.011-.024-.019-.038-.023-.014-.005-.03-.006-.044-.004h-2.027c-.64-.051-1.28.094-1.836.416-.192.153-.343.35-.441.575s-.139.47-.12.714c-.015.236.026.472.121.688.094.216.239.407.422.556.456.313 1.004.462 1.556.425z"/><path d="m315.76 122.124c-.306.031-.615.001-.91-.09-.294-.09-.567-.238-.804-.435-.335-.353-.502-.956-.502-1.809v-5.396c0-.073-.032-.109-.104-.109h-.905c-.024.004-.049.002-.073-.006s-.045-.021-.063-.038c-.018-.018-.031-.04-.039-.063-.007-.024-.009-.049-.006-.074v-.506c-.003-.025-.001-.051.007-.074.007-.024.02-.046.038-.064.017-.018.039-.032.063-.04.023-.008.048-.011.073-.008h.905c.072 0 .104-.036.104-.108v-2.484c-.004-.024-.002-.05.006-.073.008-.024.021-.046.039-.063.017-.018.039-.031.062-.039.024-.007.049-.01.074-.006h.606c.024-.003.049 0 .072.008s.044.021.061.039c.017.017.03.039.038.062.007.023.009.048.006.072v2.484c-.003.014-.002.029.003.044.005.014.013.027.023.037.011.011.024.019.038.024.014.004.029.005.044.003h1.606c.025-.003.05 0 .074.008.023.008.045.022.062.04.018.018.031.04.039.064.007.023.009.049.006.074v.506c.004.025.002.05-.006.074-.008.023-.021.045-.039.063-.017.017-.039.03-.063.038-.023.008-.049.01-.073.006h-1.606c-.015-.002-.03-.001-.044.004-.014.004-.027.012-.038.023-.01.01-.018.023-.023.037-.005.015-.006.03-.003.045v5.333c-.051.413.063.831.316 1.162.305.224.682.327 1.059.289h.339c.024-.002.049 0 .072.008.024.008.045.022.062.039.018.017.031.039.039.062s.011.048.008.072v.584c.003.024 0 .049-.008.072-.008.024-.021.045-.039.062-.017.018-.038.031-.062.039-.023.008-.048.011-.072.008z"/><path d="m318.954 111.11c-.025.004-.05.002-.074-.006-.023-.008-.045-.021-.063-.039-.017-.017-.031-.039-.038-.063-.008-.023-.01-.049-.006-.073v-1.018c-.004-.025-.002-.05.006-.073.007-.024.021-.046.038-.063.018-.018.04-.031.063-.039.024-.008.049-.01.074-.006h.782c.025-.003.05 0 .073.008s.044.021.062.039c.017.017.03.038.038.062.009.023.011.048.008.072v1.018c.004.024.002.05-.006.073-.007.024-.021.046-.038.063-.018.018-.039.031-.063.039s-.049.01-.074.006zm.086 10.96c-.025.003-.049 0-.072-.008s-.044-.021-.061-.039c-.018-.018-.03-.039-.038-.062-.007-.023-.009-.048-.006-.072v-8.291c0-.123.059-.186.177-.186h.61c.118 0 .177.063.177.186v8.291c.004.024.002.049-.006.072-.007.023-.02.044-.037.062s-.038.031-.061.039c-.024.008-.048.011-.073.008z"/><path d="m326.001 122.25c-.711.022-1.41-.181-1.999-.579-.566-.411-.979-.998-1.176-1.669-.099-.311-.172-.63-.217-.954-.052-.437-.077-.876-.073-1.316-.003-.434.021-.868.073-1.298.045-.323.117-.641.217-.95.197-.671.61-1.258 1.176-1.669.588-.402 1.288-.606 1.999-.584.714-.02 1.416.184 2.008.584.569.409.986.996 1.186 1.669.1.309.171.627.212.95.054.43.078.864.072 1.298.007.44-.017.879-.072 1.316-.042.324-.113.643-.212.954-.202.672-.618 1.258-1.186 1.669-.593.397-1.295.599-2.008.579zm0-.945c.507.017 1.007-.129 1.425-.416.406-.295.702-.717.841-1.199.086-.261.145-.531.177-.805.04-.383.058-.768.054-1.153.004-.379-.014-.759-.054-1.136-.032-.273-.091-.543-.177-.805-.139-.482-.435-.903-.841-1.198-.423-.272-.915-.417-1.418-.417s-.995.145-1.418.417c-.404.296-.698.717-.837 1.198-.09.261-.15.531-.181.805-.04.377-.058.757-.054 1.136-.004.385.014.77.054 1.153.031.274.091.544.181.805.136.483.431.905.837 1.199.414.285.908.431 1.411.416z"/><path d="m337.884 122.07c-.025.003-.05.001-.074-.006-.024-.008-.045-.021-.063-.039s-.031-.039-.039-.063c-.007-.024-.009-.049-.005-.073v-5.121c0-1.728-.744-2.591-2.23-2.591-.613-.015-1.206.212-1.651.633-.23.233-.408.512-.523.818s-.165.633-.147.959v5.302c.004.024.002.049-.006.072-.007.023-.02.044-.037.062s-.038.031-.061.039-.048.011-.072.008h-.606c-.025.002-.05 0-.073-.008s-.044-.022-.062-.039c-.017-.017-.03-.039-.038-.062s-.011-.048-.008-.072v-8.291c-.004-.025-.002-.051.006-.074.008-.024.021-.046.038-.064.018-.018.039-.032.063-.04s.049-.011.074-.008h.606c.117 0 .176.063.176.186v1.031c.218-.423.553-.774.964-1.013.473-.269 1.012-.402 1.556-.385.407-.025.814.039 1.195.186.38.148.724.376 1.007.669.557.69.833 1.563.774 2.447v5.356c.004.024.002.049-.006.072-.007.023-.02.044-.037.062s-.038.031-.061.039-.048.011-.072.008z"/><path d="m354.172 122.648c-.017.02-.037.036-.06.047s-.048.017-.074.017c-.025 0-.051-.006-.074-.017s-.043-.027-.059-.047l-1.176-1.289c-.766.62-1.73.942-2.714.905-.884.035-1.756-.214-2.488-.71-.692-.514-1.197-1.24-1.438-2.067-.064-.174-.114-.353-.15-.534-.05-.234-.087-.471-.108-.71-.032-.272-.054-.593-.073-.968-.018-.376-.027-.828-.027-1.357s0-.986.027-1.357c.028-.371.041-.697.073-.973.021-.234.057-.466.108-.696.038-.184.088-.365.15-.543.242-.828.747-1.555 1.438-2.072.747-.464 1.608-.71 2.488-.71.879 0 1.741.246 2.488.71.691.517 1.195 1.244 1.438 2.072.045.167.095.348.14.543.055.229.094.462.118.696.031.276.054.598.072.973s.027.828.027 1.357 0 .986-.027 1.357-.041.696-.072.968c-.024.239-.064.476-.118.71-.045.199-.095.375-.14.534-.067.218-.15.431-.249.638-.098.184-.209.363-.33.533l1.248 1.326c.021.014.038.033.049.055.012.022.018.046.018.071s-.006.05-.018.072c-.011.022-.028.041-.049.055zm-4.139-1.379c.728.03 1.444-.201 2.017-.651l-1.465-1.597c-.019-.015-.034-.035-.045-.057-.01-.022-.016-.045-.016-.07 0-.024.006-.048.016-.07.011-.022.026-.041.045-.056l.452-.421c.016-.018.037-.031.059-.04.023-.008.047-.012.071-.01.024.003.047.01.068.023.02.012.038.029.051.05l1.357 1.501c.058-.106.111-.214.158-.325.05-.109.095-.231.145-.362s.072-.267.113-.453c.051-.209.084-.422.099-.637 0-.254.046-.561.064-.905s.027-.792.027-1.289c0-.498 0-.905-.027-1.289-.027-.385-.041-.67-.064-.905-.015-.215-.048-.428-.099-.638-.041-.167-.077-.312-.113-.452-.166-.636-.55-1.193-1.085-1.574s-1.187-.562-1.842-.511c-1.51 0-2.492.692-2.944 2.085-.036.122-.073.267-.118.452-.047.21-.078.424-.095.638-.027.253-.045.561-.063.905s-.027.791-.027 1.289c0 .497 0 .927.027 1.289s.036.669.063.905c.017.214.048.427.095.637.045.168.082.312.118.453.466 1.393 1.447 2.085 2.958 2.085z"/><path d="m357.315 122.07c-.024.003-.05.001-.073-.006-.024-.008-.046-.021-.063-.039-.018-.018-.031-.039-.039-.063s-.01-.049-.006-.073v-11.978c-.003-.024-.001-.049.006-.072.008-.023.02-.045.038-.062.017-.018.038-.031.061-.039s.047-.011.072-.008h4.071c1.002-.058 1.987.278 2.745.937.638.701.991 1.614.991 2.562s-.353 1.861-.991 2.562c-.755.638-1.727.962-2.714.905h-3.107c-.068 0-.104.036-.104.113v5.062c.003.024 0 .049-.008.072s-.021.044-.039.062c-.017.017-.038.031-.062.039-.023.008-.048.01-.072.007zm4.021-6.333c.738.051 1.467-.184 2.036-.656.242-.24.43-.53.551-.849s.172-.66.15-1.001c.021-.342-.031-.684-.152-1.004-.121-.321-.308-.612-.549-.855-.568-.474-1.297-.71-2.036-.66h-3.062c-.014-.002-.029 0-.042.005-.014.005-.026.013-.036.023-.011.011-.018.024-.022.037-.005.014-.006.029-.004.043v4.808c-.002.015-.001.029.004.043.004.014.011.027.022.037.01.011.022.019.036.024.013.005.028.007.042.005z"/><path d="m371.075 122.25c-.397-.001-.792-.04-1.181-.117-.38-.077-.753-.183-1.117-.317-.334-.122-.656-.274-.963-.452-.269-.155-.523-.334-.76-.534-.021-.014-.038-.033-.049-.055-.012-.022-.018-.047-.018-.071 0-.025.006-.05.018-.072.011-.022.028-.041.049-.055l.429-.547c.014-.021.033-.038.054-.049.022-.012.046-.018.071-.018.024 0 .049.006.07.018.022.011.041.028.054.049.466.347.972.639 1.506.868.622.27 1.294.406 1.973.398.824.048 1.639-.195 2.302-.687.271-.22.488-.5.633-.818.146-.318.215-.665.204-1.014.003-.288-.045-.575-.141-.846-.093-.265-.248-.504-.452-.697-.264-.233-.571-.413-.904-.529-.452-.163-.921-.272-1.398-.326l-.557-.072c-.973-.063-1.899-.439-2.641-1.072-.294-.288-.524-.634-.674-1.017s-.218-.793-.199-1.204c-.025-.473.055-.946.234-1.384.179-.439.453-.833.802-1.153.779-.643 1.773-.966 2.782-.905.652-.003 1.302.091 1.926.28.551.162 1.07.417 1.534.756.108.058.122.144.036.253l-.357.561c-.013.02-.03.037-.05.05-.02.012-.043.021-.067.024-.023.004-.047.002-.07-.005-.023-.006-.044-.018-.062-.033-.449-.286-.932-.514-1.439-.678-.482-.154-.986-.23-1.492-.227-.734-.047-1.458.19-2.022.661-.239.222-.427.494-.552.796-.124.302-.181.628-.167.954-.01.289.044.577.156.843.113.266.281.505.495.7.639.478 1.406.757 2.203.8l.552.073c1.239.169 2.144.533 2.714 1.094.285.294.507.643.653 1.025.145.383.211.792.192 1.201.007.491-.087.979-.275 1.434-.184.432-.463.819-.815 1.13-.395.342-.857.596-1.357.747-.605.175-1.233.256-1.863.239z"/><path d="m378.009 119.491c-.045-.16-.091-.331-.136-.515-.046-.232-.078-.466-.095-.701-.027-.276-.045-.607-.063-.986-.018-.38-.027-.846-.027-1.389s0-1.009.027-1.389.036-.71.063-.99c.017-.234.049-.467.095-.697.045-.185.091-.362.136-.516.239-.83.74-1.56 1.429-2.08.711-.473 1.553-.711 2.407-.679.769-.016 1.529.181 2.193.57.653.408 1.164 1.007 1.466 1.715.045.108.027.189-.054.239l-.588.29c-.095.059-.172.036-.231-.073-.253-.507-.623-.946-1.081-1.28-.503-.337-1.101-.505-1.705-.479-.644-.032-1.28.149-1.81.515-.493.396-.857.93-1.045 1.534-.036.123-.072.274-.108.452-.041.211-.07.424-.086.638-.027.253-.045.555-.054.905v1.325 1.325c0 .362.027.67.054.905.016.214.045.427.086.638.036.165.072.316.108.452.188.604.552 1.138 1.045 1.533.53.366 1.166.548 1.81.516.604.026 1.202-.142 1.705-.48.458-.333.828-.772 1.081-1.28.059-.108.136-.131.231-.072l.588.29c.081.049.099.126.054.235-.301.71-.812 1.31-1.466 1.719-.664.389-1.424.586-2.193.569-.854.032-1.696-.205-2.407-.678-.689-.521-1.19-1.251-1.429-2.081z"/></g></svg>