<svg xmlns="http://www.w3.org/2000/svg" viewBox="0 0 59.94 31.76"><defs><style>.cls-1{fill:#fff;}</style></defs><g id="Layer_2" data-name="Layer 2"><g id="Layer_1-2" data-name="Layer 1"><polygon class="cls-1" points="33.27 20.03 26.18 1.75 21.55 1.75 33.19 31.76 41.2 11.09 49.14 31.55 49.14 31.55 59.94 1.72 55.16 1.72 48.36 20.32 40.76 0.72 33.27 20.03"/><path class="cls-1" d="M18.76,14.43A7.69,7.69,0,0,0,22.53,8c0-4.41-4.1-8-9.15-8H0V31.76H14.22c5.69,0,10.31-4.09,10.31-9.13a9.12,9.12,0,0,0-5.77-8.2"/><path d="M12,27.42H6.78V17.1H12a5.16,5.16,0,0,1,0,10.32M6.78,4h4.46a4.53,4.53,0,0,1,4.46,4.6,4.53,4.53,0,0,1-4.46,4.6H6.78ZM17.54,14.43A8,8,0,0,0,20.72,8,7.87,7.87,0,0,0,13,0H1.66V31.76h12a8.94,8.94,0,0,0,8.73-9.13,9.18,9.18,0,0,0-4.88-8.2"/></g></g></svg>